<?xml version="1.0" encoding="UTF-8"?>
<!-- Created with Grafika (https://www.grafika.cc/) -->
<svg xmlns="http://www.w3.org/2000/svg" xmlns:svg="http://www.w3.org/2000/svg" xmlns:xlink="http://www.w3.org/1999/xlink" width="124.88" height="58.49" viewBox="0 0 124.88 58.49" preserveAspectRatio="xMidYMid meet">
	<g transform="matrix(1, 0, 0, 1, 150.85000610351562, 34.63555908203125)">
		<g transform="matrix(1, 0, 0, 1, -88.40946960449219, -5.390279769897461)">
			<g transform="matrix(1, 0, 0, 1, 88.40946960449219, 5.390279769897461)">
				<g transform="matrix(1, 0, 0, 1, -200.15379333496094, -102.50137329101562)">
					<g transform="matrix(0.4285714328289032, 0, 0, 1, 28.571426391601562, 0)">
						<path transform="matrix(3.5, 0, 0, 2.9842426776885986, 400, 110.35363006591797)" d="M-89.95,-0.24 L100,-0" style="fill:none;stroke:#000000;stroke-linecap:round;stroke-linejoin:round;stroke-width:0.31;" />
						<path transform="matrix(3.5, 0, 0, 2.9842426776885986, 400, 79.96376037597656)" d="M-94.9,0.02 L100,-0" style="fill:none;stroke:#000000;stroke-linecap:round;stroke-linejoin:round;stroke-width:0.62;" />
						<path transform="matrix(3.5, 0, 0, 2.9842426776885986, 400, 124.96376037597656)" d="M-94.9,0.02 L100,-0" style="fill:none;stroke:#000000;stroke-linecap:round;stroke-linejoin:round;stroke-width:0.62;" />
						<path transform="matrix(3.5, 0, 0, 2.9842426776885986, 400, 95)" d="M-100,0 L100,-0" style="fill:none;stroke:#000000;stroke-linecap:round;stroke-linejoin:round;stroke-width:0.93;" />
					</g>
					<path transform="matrix(1, 0, 0, 1, -13.193450927734375, 0)" d="M78.27,79.65 L78.27,124.65" fill-rule="evenodd" style="fill:none;stroke:#000000;stroke-linecap:round;stroke-linejoin:round;stroke-width:2;" />
					<path transform="matrix(1, 0, 0, 1, 271.78033447265625, 0)" d="M78.22,80.35 L78.22,125.35" fill-rule="evenodd" style="fill:none;stroke:#000000;stroke-linecap:round;stroke-linejoin:round;stroke-width:2;" />
				</g>
			</g>
			<ellipse transform="matrix(0.056267425417900085, 0, 0, 0.056267425417900085, -21.48333740234375, -2.254373550415039)" cx="0" cy="0" rx="88.86" ry="88.86" style="fill:#B24D28;" />
			<ellipse transform="matrix(0.056267425417900085, 0, 0, 0.056267425417900085, 5.0797271728515625, -9.549635887145996)" cx="0" cy="0" rx="88.86" ry="88.86" style="fill:#B24D28;" />
			<ellipse transform="matrix(0.056267425417900085, 0, 0, 0.056267425417900085, 17.636581420898438, 6.199606895446777)" cx="0" cy="0" rx="88.86" ry="88.86" style="fill:#B24D28;" />
			<ellipse transform="matrix(0.056267425417900085, 0, 0, 0.056267425417900085, -3.71685791015625, 20.189224243164062)" cx="0" cy="0" rx="88.86" ry="88.86" style="fill:#B24D28;" />
			<ellipse transform="matrix(0.056267425417900085, 0, 0, 0.056267425417900085, -13.65167236328125, -18.561424255371094)" cx="0" cy="0" rx="88.86" ry="88.86" style="fill:#B24D28;" />
			<g transform="matrix(0.07247471809387207, 0, 0, 0.07247471809387207, -21.40850067138672, 10.278491973876953)">
				<rect x="-90.5" y="-64.8" width="181" height="129.6" fill="#FFFFFF" />
				<g transform="matrix(13.7979154586792, 0, 0, 13.7979154586792, 295.3926696777344, -141.82176208496094)">
					<path transform="matrix(0.07247471809387207, 0, 0, 0.07247471809387207, -21.40850067138672, 10.278491973876953)" d="M-13.21,-2.29 Q-13.21,6.4 -14.5,13.21 Q-15.79,20 -18.65,24.76 Q-21.51,29.5 -26.05,32.01 Q-30.59,34.5 -37.01,34.5 Q-44.99,34.5 -50.24,30.11 Q-55.49,25.71 -58.05,17.46 Q-60.59,9.21 -60.59,-2.29 Q-60.59,-13.91 -58.25,-22.09 Q-55.91,-30.29 -50.71,-34.64 Q-45.5,-39.01 -37.01,-39.01 Q-29,-39.01 -23.7,-34.64 Q-18.41,-30.29 -15.82,-22.09 Q-13.21,-13.91 -13.21,-2.29 ZM-51.8,-2.29 Q-51.8,7.5 -50.36,14.02 Q-48.9,20.51 -45.65,23.76 Q-42.4,27.01 -37.01,27.01 Q-31.59,27.01 -28.34,23.81 Q-25.09,20.61 -23.61,14.07 Q-22.09,7.5 -22.09,-2.29 Q-22.09,-12.11 -23.61,-18.55 Q-25.09,-25 -28.34,-28.24 Q-31.59,-31.49 -37.01,-31.49 Q-42.4,-31.49 -45.65,-28.24 Q-48.9,-25 -50.36,-18.55 Q-51.8,-12.11 -51.8,-2.29 ZM55.81,33.5 L46.8,33.5 L46.8,0.2 L10.2,0.2 L10.2,33.5 L1.19,33.5 L1.19,-37.91 L10.2,-37.91 L10.2,-7.71 L46.8,-7.71 L46.8,-37.91 L55.81,-37.91 L55.81,33.5 Z" fill="#B24D28" fill-rule="evenodd" />
				</g>
			</g>
			<g transform="matrix(0.07247471809387207, 0, 0, 0.07247471809387207, 10.32696533203125, 20.319786071777344)">
				<rect x="-90.5" y="-64.8" width="181" height="129.6" fill="#FFFFFF" />
				<g transform="matrix(13.7979154586792, 0, 0, 13.7979154586792, -142.4906005859375, -280.3706970214844)">
					<path transform="matrix(0.07247471809387207, 0, 0, 0.07247471809387207, 10.32696533203125, 20.319786071777344)" d="M-60.01,3.01 Q-60.01,-3.19 -59.15,-9.2 Q-58.3,-15.21 -56.2,-20.55 Q-54.1,-25.9 -50.41,-30.05 Q-46.7,-34.2 -41.06,-36.54 Q-35.4,-38.89 -27.29,-38.89 Q-25.19,-38.89 -22.65,-38.69 Q-20.09,-38.5 -18.5,-38.01 L-18.5,-30.49 Q-20.31,-31.1 -22.56,-31.39 Q-24.8,-31.71 -27.1,-31.71 Q-34.01,-31.71 -38.62,-29.39 Q-43.21,-27.1 -45.87,-23.09 Q-48.51,-19.09 -49.7,-13.89 Q-50.9,-8.71 -51.19,-2.8 L-50.61,-2.8 Q-49.09,-5.2 -46.8,-7.1 Q-44.5,-9 -41.26,-10.1 Q-38.01,-11.2 -33.69,-11.2 Q-27.51,-11.2 -22.87,-8.64 Q-18.21,-6.1 -15.62,-1.24 Q-13.01,3.59 -13.01,10.5 Q-13.01,17.9 -15.82,23.29 Q-18.6,28.69 -23.65,31.6 Q-28.71,34.5 -35.69,34.5 Q-40.79,34.5 -45.21,32.6 Q-49.61,30.69 -52.95,26.81 Q-56.3,22.9 -58.15,16.95 Q-60.01,10.99 -60.01,3.01 ZM-35.79,27.1 Q-29.49,27.1 -25.61,23.05 Q-21.7,19 -21.7,10.5 Q-21.7,3.69 -25.17,-0.29 Q-28.61,-4.29 -35.5,-4.29 Q-40.21,-4.29 -43.7,-2.34 Q-47.19,-0.41 -49.14,2.59 Q-51.1,5.59 -51.1,8.79 Q-51.1,12.09 -50.14,15.31 Q-49.19,18.51 -47.26,21.22 Q-45.31,23.91 -42.45,25.52 Q-39.6,27.1 -35.79,27.1 ZM32.2,-4.2 L56.91,-4.2 L56.91,30.79 Q51.09,32.69 45.19,33.6 Q39.3,34.5 31.81,34.5 Q20.7,34.5 13.08,30.06 Q5.49,25.59 1.53,17.36 Q-2.4,9.11 -2.4,-2.19 Q-2.4,-13.4 2,-21.6 Q6.39,-29.81 14.64,-34.35 Q22.9,-38.89 34.59,-38.89 Q40.6,-38.89 45.94,-37.79 Q51.29,-36.69 55.9,-34.69 L52.51,-26.9 Q48.7,-28.61 43.94,-29.81 Q39.21,-31 34.1,-31 Q25.61,-31 19.5,-27.49 Q13.4,-24 10.2,-17.55 Q7,-11.1 7,-2.19 Q7,6.3 9.74,12.85 Q12.5,19.39 18.38,23.05 Q24.29,26.69 33.91,26.69 Q38.59,26.69 41.89,26.2 Q45.21,25.71 47.9,25 L47.9,3.79 L32.2,3.79 L32.2,-4.2 Z" fill="#B24D28" fill-rule="evenodd" />
				</g>
			</g>
			<g transform="matrix(0.07247471809387207, 0, 0, 0.07247471809387207, 19.37084197998047, -9.652255058288574)">
				<rect x="-90.5" y="-64.8" width="181" height="129.6" fill="#FFFFFF" />
				<g transform="matrix(13.7979154586792, 0, 0, 13.7979154586792, -267.2772521972656, 133.18099975585938)">
					<path transform="matrix(0.07247471809387207, 0, 0, 0.07247471809387207, 19.37084197998047, -9.652255058288574)" d="M-13.5,33.5 L-60.69,33.5 L-60.69,26.2 L-41.99,7.3 Q-36.59,1.91 -32.91,-2.29 Q-29.2,-6.49 -27.32,-10.54 Q-25.41,-14.6 -25.41,-19.41 Q-25.41,-25.29 -28.9,-28.34 Q-32.39,-31.39 -38.01,-31.39 Q-43.21,-31.39 -47.17,-29.59 Q-51.1,-27.8 -55.2,-24.61 L-59.91,-30.49 Q-57.1,-32.91 -53.76,-34.79 Q-50.41,-36.69 -46.46,-37.79 Q-42.5,-38.89 -38.01,-38.89 Q-31.3,-38.89 -26.51,-36.59 Q-21.7,-34.3 -19.06,-30.05 Q-16.4,-25.8 -16.4,-19.89 Q-16.4,-14.3 -18.7,-9.4 Q-20.99,-4.49 -25.09,0.27 Q-29.2,5.01 -34.69,10.4 L-49.61,25.1 L-49.61,25.49 L-13.5,25.49 L-13.5,33.5 ZM55.81,33.5 L46.8,33.5 L46.8,0.2 L10.2,0.2 L10.2,33.5 L1.19,33.5 L1.19,-37.91 L10.2,-37.91 L10.2,-7.71 L46.8,-7.71 L46.8,-37.91 L55.81,-37.91 L55.81,33.5 Z" fill="#B24D28" fill-rule="evenodd" />
				</g>
			</g>
			<g transform="matrix(0.07247471809387207, 0, 0, 0.07247471809387207, -0.13376617431640625, -24.548959732055664)">
				<rect x="-90.5" y="-64.8" width="181" height="129.6" fill="#FFFFFF" />
				<g transform="matrix(13.7979154586792, 0, 0, 13.7979154586792, 1.8456944227218628, 338.7244567871094)">
					<path transform="matrix(0.07247471809387207, 0, 0, 0.07247471809387207, -0.13376617431640625, -24.548959732055664)" d="M-10.3,17.29 L-20.7,17.29 L-20.7,33.5 L-29.2,33.5 L-29.2,17.29 L-63.4,17.29 L-63.4,9.79 L-29.81,-38.3 L-20.7,-38.3 L-20.7,9.4 L-10.3,9.4 L-10.3,17.29 ZM-29.2,-13.11 Q-29.2,-15.69 -29.15,-17.84 Q-29.1,-19.99 -29,-21.9 Q-28.9,-23.8 -28.85,-25.53 Q-28.81,-27.29 -28.71,-28.9 L-29.1,-28.9 Q-29.9,-27 -31.1,-24.8 Q-32.3,-22.6 -33.4,-21.09 L-54.81,9.4 L-29.2,9.4 L-29.2,-13.11 ZM55.81,33.5 L46.8,33.5 L46.8,0.2 L10.2,0.2 L10.2,33.5 L1.19,33.5 L1.19,-37.91 L10.2,-37.91 L10.2,-7.71 L46.8,-7.71 L46.8,-37.91 L55.81,-37.91 L55.81,33.5 Z" fill="#B24D28" fill-rule="evenodd" />
				</g>
			</g>
			<g transform="matrix(0.07247471809387207, 0, 0, 0.07247471809387207, 32.99445724487305, 6.039971351623535)">
				<rect x="-101.19" y="-64.8" width="202.38" height="129.6" fill="#FFFFFF" />
				<g transform="matrix(13.7979154586792, 0, 0, 13.7979154586792, -455.2547302246094, -83.3390121459961)">
					<path transform="matrix(0.07247471809387207, 0, 0, 0.07247471809387207, 32.99445724487305, 6.039971351623535)" d="M-57.69,33.5 L-66.28,33.5 L-66.28,-16.4 Q-66.28,-19.31 -66.24,-21.31 Q-66.19,-23.31 -66.09,-25.04 Q-65.99,-26.8 -65.89,-28.71 Q-67.48,-27.1 -68.8,-26 Q-70.09,-24.9 -72.09,-23.19 L-79.69,-16.99 L-84.28,-22.9 L-64.99,-37.91 L-57.69,-37.91 L-57.69,33.5 ZM16.11,-2.29 Q16.11,6.4 14.81,13.21 Q13.52,20 10.66,24.76 Q7.81,29.5 3.26,32.01 Q-1.28,34.5 -7.7,34.5 Q-15.68,34.5 -20.93,30.11 Q-26.18,25.71 -28.74,17.46 Q-31.28,9.21 -31.28,-2.29 Q-31.28,-13.91 -28.94,-22.09 Q-26.59,-30.29 -21.39,-34.64 Q-16.19,-39.01 -7.7,-39.01 Q0.31,-39.01 5.61,-34.64 Q10.91,-30.29 13.49,-22.09 Q16.11,-13.91 16.11,-2.29 ZM-22.49,-2.29 Q-22.49,7.5 -21.05,14.02 Q-19.59,20.51 -16.34,23.76 Q-13.09,27.01 -7.7,27.01 Q-2.28,27.01 0.97,23.81 Q4.22,20.61 5.71,14.07 Q7.22,7.5 7.22,-2.29 Q7.22,-12.11 5.71,-18.55 Q4.22,-25 0.97,-28.24 Q-2.28,-31.49 -7.7,-31.49 Q-13.09,-31.49 -16.34,-28.24 Q-19.59,-25 -21.05,-18.55 Q-22.49,-12.11 -22.49,-2.29 ZM61.51,-4.2 L86.22,-4.2 L86.22,30.79 Q80.41,32.69 74.5,33.6 Q68.61,34.5 61.12,34.5 Q50.01,34.5 42.39,30.06 Q34.8,25.59 30.85,17.36 Q26.91,9.11 26.91,-2.19 Q26.91,-13.4 31.31,-21.6 Q35.7,-29.81 43.96,-34.35 Q52.21,-38.89 63.9,-38.89 Q69.91,-38.89 75.25,-37.79 Q80.6,-36.69 85.22,-34.69 L81.82,-26.9 Q78.01,-28.61 73.25,-29.81 Q68.52,-31 63.41,-31 Q54.92,-31 48.81,-27.49 Q42.71,-24 39.51,-17.55 Q36.31,-11.1 36.31,-2.19 Q36.31,6.3 39.05,12.85 Q41.81,19.39 47.69,23.05 Q53.6,26.69 63.22,26.69 Q67.91,26.69 71.2,26.2 Q74.52,25.71 77.21,25 L77.21,3.79 L61.51,3.79 L61.51,-4.2 Z" fill="#B24D28" fill-rule="evenodd" />
				</g>
			</g>
			<path transform="matrix(0.10359592735767365, 0, 0, 0.10359592735767365, -53.10090637207031, -8.884369850158691)" d="M27.73,33.5 L18.72,33.5 L18.72,0.2 L-17.87,0.2 L-17.87,33.5 L-26.88,33.5 L-26.88,-37.91 L-17.87,-37.91 L-17.87,-7.71 L18.72,-7.71 L18.72,-37.91 L27.73,-37.91 L27.73,33.5 Z" fill="#000000" fill-rule="evenodd" />
		</g>
	</g>
</svg>