<?xml version="1.0" encoding="UTF-8"?>
<!-- Created with Grafika (https://www.grafika.cc/) -->
<svg xmlns="http://www.w3.org/2000/svg" xmlns:svg="http://www.w3.org/2000/svg" xmlns:xlink="http://www.w3.org/1999/xlink" width="174.58" height="78.7" viewBox="0 0 174.58 78.7" preserveAspectRatio="xMidYMid meet">
	<g transform="matrix(1, 0, 0, 1, 150.8699951171875, 34.632789611816406)">
		<g transform="matrix(1, 0, 0, 1, -63.5792236328125, 4.715717315673828)">
			<g transform="matrix(1, 0, 0, 1, 63.5792236328125, -4.715717315673828)">
				<g transform="matrix(1, 0, 0, 1, -200.1737823486328, -102.49992370605469)">
					<g transform="matrix(0.4285714328289032, 0, 0, 1, 28.571426391601562, 0)">
						<path transform="matrix(3.5, 0, 0, 2.9842426776885986, 400, 80)" d="M-100,0 L100,-0" style="fill:none;stroke:#000000;stroke-linecap:round;stroke-linejoin:round;stroke-width:0.93;" />
						<path transform="matrix(3.5, 0, 0, 2.9842426776885986, 400, 95)" d="M-89.95,-0.24 L100,-0" style="fill:none;stroke:#000000;stroke-linecap:round;stroke-linejoin:round;stroke-width:0.31;" />
						<path transform="matrix(3.5, 0, 0, 2.9842426776885986, 400, 110)" d="M-94.9,0.02 L100,-0" style="fill:none;stroke:#000000;stroke-linecap:round;stroke-linejoin:round;stroke-width:0.62;" />
						<path transform="matrix(3.5, 0, 0, 2.9842426776885986, 400, 125)" d="M-100,0 L100,-0" style="fill:none;stroke:#000000;stroke-linecap:round;stroke-linejoin:round;stroke-width:0.93;" />
					</g>
					<path transform="matrix(1, 0, 0, 1, -13.193450927734375, 0)" d="M78.17,80 L78.27,125" fill-rule="evenodd" style="fill:none;stroke:#000000;stroke-linecap:round;stroke-linejoin:round;stroke-width:2;" />
					<path transform="matrix(1, 0, 0, 1, 271.78033447265625, 0)" d="M78.17,80 L78.27,125" fill-rule="evenodd" style="fill:none;stroke:#000000;stroke-linecap:round;stroke-linejoin:round;stroke-width:2;" />
				</g>
			</g>
			<path transform="matrix(0.10000000149011612, 0, 0, 0.795249342918396, 54.96847915649414, 34.93864059448242)" d="M-100,0 L100,-0" style="fill:none;stroke:#000000;stroke-linecap:round;stroke-linejoin:round;stroke-width:1.36;" />
			<ellipse transform="matrix(0.04821252450346947, 0, 0, 0.04821252450346947, -49.444580078125, 17.265405654907227)" cx="0" cy="0" rx="100" ry="100" style="fill:#B24D28;" />
			<ellipse transform="matrix(0.04821252450346947, 0, 0, 0.04821252450346947, -23.29790496826172, 9.937471389770508)" cx="0" cy="0" rx="100" ry="100" style="fill:#B24D28;" />
			<ellipse transform="matrix(0.04821252450346947, 0, 0, 0.04821252450346947, -49.27812194824219, -27.609527587890625)" cx="0" cy="0" rx="100" ry="100" style="fill:#B24D28;" />
			<ellipse transform="matrix(0.04821252450346947, 0, 0, 0.04821252450346947, 2.393360137939453, 2.5617637634277344)" cx="0" cy="0" rx="100" ry="100" style="fill:#B24D28;" />
			<ellipse transform="matrix(0.04821252450346947, 0, 0, 0.04821252450346947, 29.089839935302734, -5.024023056030273)" cx="0" cy="0" rx="100" ry="100" style="fill:#B24D28;" />
			<ellipse transform="matrix(0.04821252450346947, 0, 0, 0.04821252450346947, 55.11623764038086, -13.180985450744629)" cx="0" cy="0" rx="100" ry="100" style="fill:#B24D28;" />
			<ellipse transform="matrix(0.04821252450346947, 0, 0, 0.04821252450346947, -23.628013610839844, -34.52725601196289)" cx="0" cy="0" rx="100" ry="100" style="fill:#B24D28;" />
			<ellipse transform="matrix(0.04821252450346947, 0, 0, 0.04821252450346947, 54.95990753173828, 34.52725601196289)" cx="0" cy="0" rx="100" ry="100" style="fill:#B24D28;" />
			<g transform="matrix(0.10706007480621338, 0, 0, 0.10706007480621338, -49.60362243652344, 30.247982025146484)">
				<rect x="-32.86" y="-49.92" width="65.72" height="99.84" fill="#FFFFFF" />
				<g transform="matrix(9.340550422668457, 0, 0, 9.340550422668457, 463.32513427734375, -282.5328063964844)">
					<path transform="matrix(0.10706007480621338, 0, 0, 0.10706007480621338, -49.60362243652344, 30.247982025146484)" d="M6.64,33.5 L-1.95,33.5 L-1.95,-16.4 Q-1.95,-19.31 -1.91,-21.31 Q-1.86,-23.31 -1.76,-25.04 Q-1.66,-26.8 -1.56,-28.71 Q-3.15,-27.1 -4.47,-26 Q-5.76,-24.9 -7.77,-23.19 L-15.36,-16.99 L-19.95,-22.9 L-0.66,-37.91 L6.64,-37.91 L6.64,33.5 Z" fill="#B24D28" fill-rule="evenodd" />
				</g>
			</g>
			<g transform="matrix(0.09044432640075684, 0, 0, 0.09044432640075684, -49.41584014892578, -16.218915939331055)">
				<rect x="-64.97" y="-49.92" width="129.94" height="99.84" fill="#FFFFFF" />
				<g transform="matrix(11.056525230407715, 0, 0, 11.056525230407715, 546.3674926757812, 179.32485961914062)">
					<path transform="matrix(0.09044432640075684, 0, 0, 0.09044432640075684, -49.41584014892578, -16.218915939331055)" d="M-19.47,33.5 L-28.06,33.5 L-28.06,-16.4 Q-28.06,-19.31 -28.02,-21.31 Q-27.97,-23.31 -27.87,-25.04 Q-27.77,-26.8 -27.67,-28.71 Q-29.26,-27.1 -30.58,-26 Q-31.87,-24.9 -33.88,-23.19 L-41.47,-16.99 L-46.06,-22.9 L-26.77,-37.91 L-19.47,-37.91 L-19.47,33.5 ZM20.73,33.5 L11.72,33.5 L11.72,-37.91 L51.64,-37.91 L51.64,-30 L20.73,-30 L20.73,-4.71 L49.74,-4.71 L49.74,3.2 L20.73,3.2 L20.73,33.5 Z" fill="#B24D28" fill-rule="evenodd" />
				</g>
			</g>
			<g transform="matrix(0.09044432640075684, 0, 0, 0.09044432640075684, -23.958221435546875, -22.908512115478516)">
				<rect x="-64.97" y="-49.92" width="129.94" height="99.84" fill="#FFFFFF" />
				<g transform="matrix(11.056525230407715, 0, 0, 11.056525230407715, 264.8946838378906, 253.28854370117188)">
					<path transform="matrix(0.09044432640075684, 0, 0, 0.09044432640075684, -23.958221435546875, -22.908512115478516)" d="M-2.97,33.5 L-50.16,33.5 L-50.16,26.2 L-31.46,7.3 Q-26.06,1.91 -22.38,-2.29 Q-18.67,-6.49 -16.79,-10.54 Q-14.88,-14.6 -14.88,-19.41 Q-14.88,-25.29 -18.37,-28.34 Q-21.86,-31.39 -27.48,-31.39 Q-32.68,-31.39 -36.63,-29.59 Q-40.56,-27.8 -44.67,-24.61 L-49.38,-30.49 Q-46.57,-32.91 -43.23,-34.79 Q-39.88,-36.69 -35.93,-37.79 Q-31.97,-38.89 -27.48,-38.89 Q-20.77,-38.89 -15.98,-36.59 Q-11.17,-34.3 -8.53,-30.05 Q-5.87,-25.8 -5.87,-19.89 Q-5.87,-14.3 -8.17,-9.4 Q-10.46,-4.49 -14.56,0.27 Q-18.67,5.01 -24.16,10.4 L-39.08,25.1 L-39.08,25.49 L-2.97,25.49 L-2.97,33.5 ZM20.73,33.5 L11.72,33.5 L11.72,-37.91 L51.64,-37.91 L51.64,-30 L20.73,-30 L20.73,-4.71 L49.74,-4.71 L49.74,3.2 L20.73,3.2 L20.73,33.5 Z" fill="#B24D28" fill-rule="evenodd" />
				</g>
			</g>
			<g transform="matrix(0.09044432640075684, 0, 0, 0.09044432640075684, 37.230918884277344, 34.803985595703125)">
				<rect x="-64.97" y="-49.92" width="129.94" height="99.84" fill="#FFFFFF" />
				<g transform="matrix(11.056525230407715, 0, 0, 11.056525230407715, -411.64459228515625, -384.8111572265625)">
					<path transform="matrix(0.09044432640075684, 0, 0, 0.09044432640075684, 37.230918884277344, 34.803985595703125)" d="M-37.48,-10.3 Q-30.18,-10.3 -24.78,-7.78 Q-19.36,-5.29 -16.43,-0.63 Q-13.48,4.01 -13.48,10.7 Q-13.48,18.09 -16.68,23.44 Q-19.88,28.79 -25.83,31.64 Q-31.77,34.5 -40.16,34.5 Q-45.66,34.5 -50.52,33.5 Q-55.37,32.5 -58.67,30.59 L-58.67,22.29 Q-55.06,24.49 -49.93,25.76 Q-44.78,27.01 -40.07,27.01 Q-34.77,27.01 -30.81,25.37 Q-26.86,23.71 -24.66,20.27 Q-22.46,16.8 -22.46,11.6 Q-22.46,4.59 -26.76,0.86 Q-31.06,-2.9 -40.36,-2.9 Q-43.17,-2.9 -46.78,-2.39 Q-50.37,-1.9 -52.57,-1.41 L-56.96,-4.2 L-54.28,-37.91 L-18.46,-37.91 L-18.46,-29.9 L-46.78,-29.9 L-48.47,-9.2 Q-46.78,-9.49 -43.88,-9.88 Q-40.97,-10.3 -37.48,-10.3 ZM58.93,-2.9 Q58.93,9.11 54.48,17.22 Q50.04,25.3 41.74,29.4 Q33.44,33.5 21.62,33.5 L1.72,33.5 L1.72,-37.91 L23.72,-37.91 Q34.54,-37.91 42.42,-33.91 Q50.33,-29.9 54.63,-22.14 Q58.93,-14.4 58.93,-2.9 ZM49.43,-2.61 Q49.43,-12.11 46.28,-18.18 Q43.13,-24.29 37.07,-27.24 Q31.02,-30.2 22.43,-30.2 L10.73,-30.2 L10.73,25.81 L20.42,25.81 Q34.93,25.81 42.18,18.66 Q49.43,11.5 49.43,-2.61 Z" fill="#B24D28" fill-rule="evenodd" />
				</g>
			</g>
			<g transform="matrix(0.10706007480621338, 0, 0, 0.10706007480621338, -23.51641845703125, 23.237041473388672)">
				<rect x="-32.86" y="-49.92" width="65.72" height="99.84" fill="#FFFFFF" />
				<g transform="matrix(9.340550422668457, 0, 0, 9.340550422668457, 219.6562957763672, -217.0467529296875)">
					<path transform="matrix(0.10706007480621338, 0, 0, 0.10706007480621338, -23.51641845703125, 23.237041473388672)" d="M23.14,33.5 L-24.05,33.5 L-24.05,26.2 L-5.35,7.3 Q0.05,1.91 3.73,-2.29 Q7.44,-6.49 9.32,-10.54 Q11.23,-14.6 11.23,-19.41 Q11.23,-25.29 7.74,-28.34 Q4.25,-31.39 -1.37,-31.39 Q-6.57,-31.39 -10.52,-29.59 Q-14.45,-27.8 -18.56,-24.61 L-23.27,-30.49 Q-20.46,-32.91 -17.12,-34.79 Q-13.77,-36.69 -9.82,-37.79 Q-5.86,-38.89 -1.37,-38.89 Q5.34,-38.89 10.13,-36.59 Q14.94,-34.3 17.58,-30.05 Q20.24,-25.8 20.24,-19.89 Q20.24,-14.3 17.94,-9.4 Q15.65,-4.49 11.55,0.27 Q7.44,5.01 1.95,10.4 L-12.97,25.1 L-12.97,25.49 L23.14,25.49 L23.14,33.5 Z" fill="#B24D28" fill-rule="evenodd" />
				</g>
			</g>
			<g transform="matrix(0.10706007480621338, 0, 0, 0.10706007480621338, 2.8153648376464844, 15.775007247924805)">
				<rect x="-32.86" y="-49.92" width="65.72" height="99.84" fill="#FFFFFF" />
				<g transform="matrix(9.340550422668457, 0, 0, 9.340550422668457, -26.29705810546875, -147.3472442626953)">
					<path transform="matrix(0.10706007480621338, 0, 0, 0.10706007480621338, 2.8153648376464844, 15.775007247924805)" d="M20.43,-21.21 Q20.43,-16.4 18.63,-12.89 Q16.84,-9.4 13.47,-7.2 Q10.13,-5 5.64,-4.1 L5.64,-3.71 Q14.23,-2.71 18.43,1.71 Q22.63,6.11 22.63,13.21 Q22.63,19.39 19.72,24.25 Q16.84,29.11 10.79,31.82 Q4.73,34.5 -4.76,34.5 Q-10.35,34.5 -15.16,33.65 Q-19.95,32.79 -24.37,30.59 L-24.37,22.39 Q-19.85,24.59 -14.65,25.86 Q-9.45,27.1 -4.66,27.1 Q4.93,27.1 9.18,23.37 Q13.45,19.61 13.45,12.99 Q13.45,8.5 11.08,5.77 Q8.74,3.01 4.22,1.71 Q-0.27,0.39 -6.57,0.39 L-13.45,0.39 L-13.45,-7.1 L-6.45,-7.1 Q-0.56,-7.1 3.39,-8.79 Q7.35,-10.49 9.4,-13.55 Q11.45,-16.6 11.45,-20.6 Q11.45,-25.8 7.93,-28.63 Q4.44,-31.49 -1.56,-31.49 Q-5.35,-31.49 -8.45,-30.73 Q-11.55,-30 -14.21,-28.63 Q-16.85,-27.29 -19.56,-25.51 L-23.95,-31.49 Q-20.17,-34.49 -14.53,-36.69 Q-8.86,-38.89 -1.66,-38.89 Q9.54,-38.89 14.99,-33.88 Q20.43,-28.9 20.43,-21.21 Z" fill="#B24D28" fill-rule="evenodd" />
				</g>
			</g>
			<g transform="matrix(0.10706007480621338, 0, 0, 0.10706007480621338, 29.065624237060547, 8.64449691772461)">
				<rect x="-32.86" y="-49.92" width="65.72" height="99.84" fill="#FFFFFF" />
				<g transform="matrix(9.340550422668457, 0, 0, 9.340550422668457, -271.4889221191406, -80.7443618774414)">
					<path transform="matrix(0.10706007480621338, 0, 0, 0.10706007480621338, 29.065624237060547, 8.64449691772461)" d="M26.34,17.29 L15.94,17.29 L15.94,33.5 L7.44,33.5 L7.44,17.29 L-26.76,17.29 L-26.76,9.79 L6.83,-38.3 L15.94,-38.3 L15.94,9.4 L26.34,9.4 L26.34,17.29 ZM7.44,-13.11 Q7.44,-15.69 7.49,-17.84 Q7.54,-19.99 7.64,-21.9 Q7.74,-23.8 7.79,-25.53 Q7.84,-27.29 7.93,-28.9 L7.54,-28.9 Q6.74,-27 5.54,-24.8 Q4.34,-22.6 3.25,-21.09 L-18.17,9.4 L7.44,9.4 L7.44,-13.11 Z" fill="#B24D28" fill-rule="evenodd" />
				</g>
			</g>
			<g transform="matrix(0.10706007480621338, 0, 0, 0.10706007480621338, 54.82674789428711, -0.5186586380004883)">
				<rect x="-32.86" y="-49.92" width="65.72" height="99.84" fill="#FFFFFF" />
				<g transform="matrix(9.340550422668457, 0, 0, 9.340550422668457, -512.1119995117188, 4.844557285308838)">
					<path transform="matrix(0.10706007480621338, 0, 0, 0.10706007480621338, 54.82674789428711, -0.5186586380004883)" d="M-1.37,-10.3 Q5.93,-10.3 11.33,-7.78 Q16.75,-5.29 19.68,-0.63 Q22.63,4.01 22.63,10.7 Q22.63,18.09 19.43,23.44 Q16.23,28.79 10.28,31.64 Q4.34,34.5 -4.05,34.5 Q-9.55,34.5 -14.41,33.5 Q-19.26,32.5 -22.56,30.59 L-22.56,22.29 Q-18.95,24.49 -13.82,25.76 Q-8.67,27.01 -3.96,27.01 Q1.34,27.01 5.3,25.37 Q9.25,23.71 11.45,20.27 Q13.65,16.8 13.65,11.6 Q13.65,4.59 9.35,0.86 Q5.05,-2.9 -4.25,-2.9 Q-7.06,-2.9 -10.67,-2.39 Q-14.26,-1.9 -16.46,-1.41 L-20.85,-4.2 L-18.17,-37.91 L17.65,-37.91 L17.65,-29.9 L-10.67,-29.9 L-12.36,-9.2 Q-10.67,-9.49 -7.77,-9.88 Q-4.86,-10.3 -1.37,-10.3 Z" fill="#B24D28" fill-rule="evenodd" />
				</g>
			</g>
		</g>
	</g>
</svg>