<?xml version="1.0" encoding="UTF-8"?>
<!-- Created with Grafika (https://www.grafika.cc/) -->
<svg xmlns="http://www.w3.org/2000/svg" xmlns:svg="http://www.w3.org/2000/svg" xmlns:xlink="http://www.w3.org/1999/xlink" width="310.91" height="54.83" viewBox="0 0 310.91 54.83" preserveAspectRatio="xMidYMid meet">
	<g transform="matrix(1, 0, 0, 1, 155.4544677734375, 27.416351318359375)">
		<g transform="matrix(1.5126646757125854, 0, 0, 1.5126646757125854, -136.2663116455078, 2.6464691162109375)">
			<g transform="matrix(0.10941822826862335, 0, 0, 0.09407877922058105, -18.47174072265625, -19.014671325683594)">
				<path d="M52.89,375.95 C52.89,374.89 59.1,361.37 59.84,358.9 C60.58,356.42 78.11,327.32 77.03,324.48 C76.28,322.47 89.05,313.76 92.57,305.9 C93.31,304.25 127.66,224.66 129.97,212 C130.62,208.43 137,191.58 137,191.06 C137,189.03 169.62,130.63 172,126.14 C174.75,120.95 189.35,98.57 199.77,89.27 C202.37,86.95 214.08,82.59 216.04,78.92 C216.64,77.8 255.35,51.05 255.54,48.72 C274.76,33.68 287.19,26.31 284.33,28.41 C286.36,33.72 263.9,59.95 262.52,60.76 C261.83,61.17 244.39,77.9 242.21,80.42 C233.48,90.5 224.96,94.66 217.4,95.99 C210.61,97.19 193.49,118.79 188.34,125.59 C185.77,129 169.73,162.51 184.5,148.89 C186.81,146.76 205,137.55 205,137.01 C205,136.47 232.36,119.73 234.01,118.34 C241.75,111.82 247.2,99.42 256.46,97.41 C262.24,91.79 255.85,106.83 254.05,109.44 C250.45,114.65 233.63,135.57 233.39,135.33 C232.49,134.43 220.56,143.49 218.78,143.51 C217.59,143.52 214.31,148.37 208.65,152.44 C204.63,155.33 197.56,161.55 197.64,160.64 C197.72,159.74 194.63,163.17 191.9,164.5 C188.1,166.36 166.99,173.47 165.76,173.78 C160.57,182.98 176.95,185.55 175.06,185.69 C175.06,185.14 202,179.11 202,178.03 C202,177.07 232.2,168.22 233.22,166.99 C235.54,168.82 217.3,184.61 216.22,185.22 C212.25,189.3 199.47,194.64 197.28,195.53 C193.87,197.03 159.7,203.8 154.28,210.01 C151.64,213.04 136,237.36 136,238.64 C136,239.66 109.68,303.49 109.27,305.14 C108.87,306.79 102.65,330.73 105.7,330.73 C107.6,330.73 85.75,342.13 81.15,346.99 C78.85,349.42 63.76,367.6 61.89,369.4 C58.59,372.56 52.89,377.33 52.89,375.95 L52.89,375.95 Z" style="fill:#6D6A6A;" />
			</g>
		</g>
		<g transform="matrix(1, 0, 0, 1, -89.03563690185547, 2.6464691162109375)">
			<g transform="matrix(0.09052258729934692, 0, 0, 0.08797691762447357, -21.271053314208984, -18.585058212280273)">
				<path d="M40.5,410.21 C37.18,409.52 47.39,379.72 47.45,376.87 C47.48,375.36 55,350.47 55,347.58 C55,346.24 73.59,316.87 75.64,312 C76.87,309.07 76.2,302 77.67,302 C78.58,302 86.51,290 86.99,290 C87.46,290 94.7,271.67 95.55,270.96 C96.4,270.26 124.17,235.74 132.43,228.5 C138.15,223.49 147.83,204.76 148.91,203.25 C149.99,201.74 154.7,183.18 155.54,181.57 C156.38,179.95 162.41,156.86 162.91,156.55 C163.42,156.24 167.72,136.41 168.38,135.73 C170.79,133.25 167.49,111 171,106.16 C172.65,103.88 182.51,75.97 186.16,70.94 C187.84,68.62 193.45,54.84 194.36,54.32 C196.48,53.12 230.58,36.75 231.64,35.7 C232.02,35.31 260.74,25.92 267,23.19 C267.61,22.92 343.96,12.93 354.12,12.29 C359.47,11.95 374.24,20.12 375.39,20.12 C376.54,20.12 428.7,35.62 429.93,35.62 C432.4,35.62 406.06,48.01 405.12,47.08 C403.53,45.49 357.89,39.59 355.42,39.13 C352.94,38.67 270.25,50.08 269.66,47.79 C269.08,45.58 258.76,51 257.09,51 C253.53,51 234.27,64 233.54,64 C232.08,64 229.41,67 226.77,73 C225.92,74.93 221.73,90.16 220,89.71 C217.69,89.11 227.34,109.5 236.63,109.11 C249.95,109.42 284.11,117.73 305.48,114.49 C342.52,115.64 357.83,104.51 379.4,102.74 C388.63,113.89 321.35,142.46 303.86,142.93 C295.61,148.53 244.02,141.41 244.02,141.79 C244.02,143.11 224.67,146.69 222.07,149.11 C221.04,150.08 213.61,162.54 213.61,164.23 C213.61,165.62 199.47,172.8 201.89,174.57 C204.01,176.12 191.4,195.53 191.55,197.47 C191.71,199.41 183,208.92 183,210.54 C183,211.81 168.59,229.89 168.01,230.99 C167.42,232.08 152,244.76 152,245.86 C152,247.81 132,270.27 132,271.27 C132,272.27 124,293.38 124,295.05 C124,296.99 115.37,303.96 117.25,305.87 C119.26,307.9 107.73,341 101.39,341 C100.63,341 94.16,355.14 91.99,355.71 C90.81,356.02 73.46,386.98 69.22,387.02 C68.12,387.03 51.96,411.95 50.6,408.39 C50.18,407.31 42.5,410.62 40.5,410.21 L40.5,410.21 ZM206.9,48.91 C205.81,48.23 207.62,49.37 206.9,48.91M206.9,48.91 L206.9,48.91 Z" style="fill:#6D6A6A;" />
			</g>
		</g>
		<g transform="matrix(1, 0, 0, 1, -53.91015625, 2.6464691162109375)">
			<g transform="matrix(0.12579457461833954, 0, 0, 0.12579457461833954, -36.98310089111328, -18.756328582763672)">
				<path d="M102.34,287.75 C102.03,287.23 92,286.42 92,284.21 C92,282.07 111.51,269.44 113.69,266.67 C114.73,265.35 123.44,259.68 125.24,258.12 C127.03,256.55 135.06,252.56 137.34,251.04 C147.13,244.52 154.42,242.26 155.16,241.23 C155.72,240.46 159.2,238.16 162.5,236.2 C163.6,235.54 174.22,231.87 177.28,230.75 C178.81,230.19 182.28,230.41 183.42,229.67 C184.56,228.94 200.14,223.29 205.06,221.04 C206.47,220.39 215.29,218.94 216.01,218.49 C216.73,218.05 225.27,217.38 226.01,216.49 C226.69,215.67 251.65,208.23 269.54,187.94 C272.88,184.16 286.97,169.04 289.25,165.04 C290.99,161.99 303,146.29 303,145.44 C303,143.69 317.86,126.93 319.15,124.8 C321.73,120.54 342,86.91 342,85.08 C342,84.41 346.94,73.27 347.33,68.15 C347.61,64.56 350.47,58.92 353.75,54.28 C355.39,51.96 370.22,43.04 371.45,39.14 C371.8,38.07 374.92,35.33 374.48,33.93 C374.08,32.68 380.18,21 379.27,21 C378.93,21 383.26,15.02 383.98,13.2 C388.3,2.27 412.98,24.13 427.15,24.66 C433.94,24.91 451.14,26.54 453.14,26.28 C455.52,25.97 462.17,28.97 464.67,27.7 C466.67,26.69 478.1,30.62 482.5,32.01 C487.71,33.65 491.79,42.19 494.09,46.95 C499.4,57.94 492,66.49 492,67.03 C492,70.47 462.82,68 461.41,68 C460.71,68 450.1,58.01 449.61,58.01 C449.12,58 445.57,54.22 430.41,53.38 C419.55,52.78 416.4,55.94 414.85,55.45 C413.12,54.9 413.34,58.31 412.23,58.73 C410.33,59.45 403.1,61.84 402.64,60.75 C402.32,59.97 392.6,69.03 391.5,69.04 C388.87,69.07 385.45,74.73 384.51,74.37 C383.86,74.12 381.43,78.45 377.01,85.1 C374.81,88.42 372.33,93.31 371.51,93.99 C369.41,95.73 362.76,113.37 361.42,115.33 C359.82,117.68 358.24,128.1 355.62,131.33 C353.76,133.62 347.07,144.26 343.75,146.43 C342.34,147.35 338.2,155.04 336.18,156.99 C334.15,158.93 318.94,174.96 318.25,174.97 C317.56,174.99 315.14,181.03 312.86,183.33 C310.58,185.62 298.27,201.82 287.79,211.55 C284.17,214.92 274.35,223.68 272.62,224.18 C270.36,224.84 263.71,228 262.68,228 C261.65,228 259.23,231.64 258.54,231.38 C257.84,231.11 242.31,235.21 231.03,235.6 C220.3,235.96 213.11,238.78 212.83,238.5 C212.12,237.79 190.78,246 189.44,246 C188.1,246 185.25,247.98 183,247.84 C180.79,247.71 176.04,250 175.35,250 C174.66,250 166.54,255.85 163.26,257.5 C158.54,259.88 153.03,268.44 151.96,268.72 C150.88,269 140.64,280.02 138.61,280.46 C133.08,281.65 103.56,289.72 102.34,287.75 L102.34,287.75 Z" style="fill:#6D6A6A;" />
			</g>
		</g>
		<g transform="matrix(0.5060893893241882, 0, 0, 0.5060893893241882, 39.425537109375, -2.6964111328125)">
			<path transform="matrix(0.3532474637031555, 0, 0, 0.24439218640327454, -77.29903411865234, -133.71810913085938)" d="M189.67,746.33 C186.77,743.43 179.93,728.38 180.36,729.49 C181,731.15 198.26,675.81 197.27,670.64 C196.96,668.99 208,644.3 208,643.45 C208,642.6 216.05,615.58 215.71,614.68 C215.37,613.79 223.25,579.94 221.42,577.91 C219.96,576.3 222.06,567.05 221.53,567.03 C220.99,567.01 226.95,522.52 224.96,521.79 C222.34,520.82 225.38,493.05 223.67,493.52 C222.27,493.92 217.44,470.94 216.75,470.66 C215.38,470.11 214.77,445.6 219.01,440.49 C220.08,439.2 215.41,424.8 215.56,423.75 C215.71,422.78 204.28,399.21 208.02,397.74 C208.92,397.39 209.07,367.85 212.81,364.21 C218.15,359.03 231.06,347.85 234.25,347.72 C257.98,342.47 258.4,386.38 256.75,391.08 C257.85,391.13 244.05,420.09 244.28,421.35 C244.53,422.67 244.11,453.43 244.89,454.37 C245.52,455.13 241.9,472.58 243,472.29 C244.65,471.86 247.72,505.04 248.23,505.71 C248.75,506.37 247.47,555.01 248.19,555.03 C249.02,555.05 241.96,598.05 242.31,599.78 C242.63,601.42 239.81,632.26 240.97,632.98 C243.47,634.53 233.36,654.06 234.35,652.9 C236.32,650.6 227.56,675.2 226,676.29 C223.83,677.81 225.95,689.48 223.53,691.56 C213,700.61 212.54,720.34 210.53,722.4 C207.49,725.53 197.13,731.28 196.29,733.68 C196.05,734.36 195.69,747 193.37,747 C191.7,747 190.03,746.7 189.67,746.33 L189.67,746.33 Z" style="fill:#6D6A6A;" />
		</g>
		<g transform="matrix(1.3057341575622559, 0, 0, 1.3057341575622559, -1.1082305908203125, -2.696807861328125)">
			<g transform="matrix(0.06891950964927673, 0, 0, 0.09805214405059814, -20.076278686523438, -31.636173248291016)">
				<path d="M185,501.12 C185,500.14 168.04,463.31 167.97,466.25 C167.93,467.68 176.01,438.37 176.63,439.79 C177.59,441.98 204.43,390.17 203.78,390.82 C201.82,392.78 220.62,359 221.61,359 C248.38,353.67 250.66,245.3 221.7,247.16 C210.16,214.65 255.62,232.56 260.82,249.5 C259.77,250.54 266.45,286.92 268.34,305 C269.07,311.96 300.68,295 302.51,295 C304.21,295 334.63,260.65 337.23,257.95 C339.82,255.25 362.76,207.14 367.43,196.58 C371.85,186.61 410.65,140.48 413.08,144.41 C421.28,160.48 394.41,181.51 393.67,185.85 C388.18,203.75 379.88,226.88 380.64,225.5 C380.32,226.33 352.56,285.28 354.21,286.43 C355.58,287.39 331,320.79 331,322.39 C331,324.2 299,352.8 299,355.04 C299,359.11 264.49,381.22 262.55,378.09 C261.48,376.36 217.73,439 216.04,439 C215.07,439 198.97,460.88 202.1,469.87 C203.41,473.61 185,501.6 185,501.12 L185,501.12 Z" style="fill:#6D6A6A;" />
			</g>
		</g>
		<g transform="matrix(-1.3057341575622559, 0, 0, 1.3057341575622559, 84.68159484863281, -4.5657501220703125)">
			<g transform="matrix(0.06891950964927673, 0, 0, 0.09805214405059814, -20.076278686523438, -31.636173248291016)">
				<path d="M185,501.12 C185,500.14 168.04,463.31 167.97,466.25 C167.93,467.68 176.01,438.37 176.63,439.79 C177.59,441.98 204.43,390.17 203.78,390.82 C201.82,392.78 220.62,359 221.61,359 C248.38,353.67 250.66,245.3 221.7,247.16 C210.16,214.65 255.62,232.56 260.82,249.5 C259.77,250.54 266.45,286.92 268.34,305 C269.07,311.96 300.68,295 302.51,295 C304.21,295 334.63,260.65 337.23,257.95 C339.82,255.25 362.76,207.14 367.43,196.58 C371.85,186.61 410.65,140.48 413.08,144.41 C421.28,160.48 394.41,181.51 393.67,185.85 C388.18,203.75 379.88,226.88 380.64,225.5 C380.32,226.33 352.56,285.28 354.21,286.43 C355.58,287.39 331,320.79 331,322.39 C331,324.2 299,352.8 299,355.04 C299,359.11 264.49,381.22 262.55,378.09 C261.48,376.36 217.73,439 216.04,439 C215.07,439 198.97,460.88 202.1,469.87 C203.41,473.61 185,501.6 185,501.12 L185,501.12 Z" style="fill:#6D6A6A;" />
			</g>
		</g>
		<g transform="matrix(0.10911711305379868, 0, 0, 0.10911711305379868, 136.82925415039062, -4.5657501220703125)">
			<g transform="matrix(1.4984899759292603, 0, 0, 1.4984899759292603, -417.98443603515625, -433.5528869628906)">
				<path d="M318.04,422.77 C316.68,420.23 315.22,418.36 314.79,418.63 C314.36,418.9 313.44,418.75 312.75,418.31 C312.06,417.86 309.93,417.03 308,416.45 C305.61,415.72 304.59,414.87 304.78,413.74 C304.94,412.83 303.93,411.34 302.53,410.43 C301.14,409.52 300,408.12 300,407.33 C300,406.53 299.6,406.13 299.11,406.43 C297.31,407.54 291.9,404.71 290.44,401.89 C289.62,400.3 288.71,399 288.42,399 C288.12,399 288.15,399.43 288.47,399.95 C288.79,400.47 288.09,401.42 286.9,402.05 C285.21,402.96 284.56,402.92 283.89,401.85 C282.8,400.14 282.74,397.72 283.8,398.38 C284.24,398.65 285.25,398.45 286.05,397.95 C287.25,397.19 287.2,397.03 285.75,397.02 C284.79,397.01 284,396.38 284,395.62 C284,394.86 282.99,393.96 281.75,393.63 C278.44,392.74 278,392.85 278,394.5 C278,396.67 275.9,396.35 275.31,394.08 C274.87,392.4 270.81,390.39 268.75,390.84 C268.34,390.93 268,390.55 268,390 C268,389.45 269.13,389 270.5,389 C271.88,389 273,388.55 273,388 C273,387.45 271.88,387 270.5,387 C268.94,387 268,386.43 268,385.5 C268,384.67 267.11,384 266,384 C264.9,384 263.07,383.07 261.93,381.93 C259.48,379.48 257,380.78 257,384.52 C257,386.94 255.31,388 251.42,388 C249.54,388 249.03,388.5 249.12,390.25 C249.2,391.94 249.35,392.07 249.69,390.75 C250.16,388.93 251.18,388.52 252.34,389.67 C252.71,390.04 254.02,390.45 255.26,390.58 C258.85,390.96 260.89,391.55 261.72,392.45 C262.15,392.91 261.36,393.01 259.97,392.68 C256.8,391.92 252.92,392.88 253.1,394.37 C253.65,398.97 252.83,403.13 251.25,403.71 C250.29,404.06 249.17,404.84 248.77,405.43 C248.35,406.03 248.02,405.48 248.02,404.19 C248.01,402.84 247.56,402.15 246.96,402.53 C246.38,402.88 245.23,402.6 244.39,401.91 C243.08,400.82 242.97,401.01 243.55,403.33 C244.32,406.4 242.15,407.09 239.96,404.45 C239.1,403.42 238.45,403.26 238.01,403.99 C237.64,404.58 236.53,404.76 235.53,404.37 C233.78,403.7 233.78,403.63 235.54,402.35 C237.21,401.13 237.1,400.97 234.18,400.39 C232.22,399.99 230.97,399.13 230.93,398.13 C230.88,396.96 230.55,397.14 229.78,398.75 C228.52,401.37 227,401.72 227,399.39 C227,398.19 226.39,397.94 224.56,398.4 C223.22,398.73 221.82,398.52 221.46,397.93 C220.35,396.14 216.61,395.14 215.21,396.27 C214.25,397.04 213.51,396.75 212.4,395.16 C211.57,393.97 210.29,393 209.56,393 C208.83,393 207.49,391.88 206.59,390.5 C204.65,387.54 202.4,387 203.93,389.87 C205.54,392.89 203.9,393.19 201.28,390.36 C199.56,388.5 199.17,387.43 199.93,386.67 C201.46,385.14 201.25,384 199.44,384 C198.54,384 198.18,384.47 198.58,385.13 C199,385.81 198.73,386.08 197.89,385.8 C197.13,385.55 195.96,383.81 195.31,381.92 C194.65,380.04 194.09,379.15 194.06,379.94 C194.02,380.96 193.41,380.75 191.96,379.19 C190.84,377.98 189.3,377 188.54,377 C186.57,377 181,372.1 181,370.37 C181,369.54 180.25,369.04 179.25,369.21 C177.8,369.45 177.56,368.86 177.82,365.83 C178.11,362.54 177.92,362.21 176.07,362.69 C174.89,363 174,362.75 174,362.12 C174,361.5 174.68,361 175.5,361 C176.33,361 177,360.53 177,359.96 C177,359.38 176.21,359.04 175.25,359.21 C174.13,359.39 173.55,358.9 173.63,357.83 C173.7,356.82 172.76,355.91 171.28,355.53 C169.24,355.02 168.91,354.48 169.42,352.46 C169.83,350.82 169.61,349.99 168.77,349.97 C168.04,349.95 168.35,349.29 169.49,348.44 C171.47,346.94 171.47,346.93 169.49,346.41 C167.85,345.98 167.45,344.89 167.22,340.21 C167.06,337.09 166.5,334.1 165.97,333.57 C164.43,332.03 164.84,328.84 166.75,327.42 C168.13,326.39 168.27,325.74 167.39,324.31 C166.54,322.93 166.64,321.96 167.78,320.21 C168.92,318.47 169.03,317.36 168.24,315.62 C167.07,313.06 167.64,311.67 170.25,310.71 C171.21,310.35 172,309.15 172,308.03 C172,306.91 172.45,306 173,306 C173.55,306 174,305.34 174,304.53 C174,303.61 173.42,303.29 172.43,303.67 C171.11,304.17 170.97,303.69 171.54,300.63 C171.99,298.24 171.85,297 171.12,297 C170.52,297 170.12,295.88 170.23,294.5 C170.34,293.13 171.01,292 171.72,292 C172.42,292 173,291.55 173,291 C173,290.45 172.48,290 171.85,290 C171.18,290 171.43,289.18 172.44,288.06 C174.06,286.27 174.08,285.95 172.6,283.84 C170.44,280.75 170.59,279.71 173,281 C174.18,281.63 175,281.68 175,281.12 C175,280.59 174.44,279.93 173.75,279.65 C172.84,279.27 172.98,278.74 174.25,277.7 C175.5,276.68 175.84,275.44 175.42,273.36 C174.98,271.14 175.37,269.99 177.09,268.48 C179.33,266.51 179.34,266.51 178.63,268.5 C178.1,270.01 178.64,269.76 180.82,267.5 C182.41,265.85 183.52,263.98 183.29,263.35 C183.06,262.72 183.34,261.91 183.93,261.54 C184.52,261.18 185,259.83 185,258.55 C185,255.88 188.45,251.13 189.58,252.25 C190,252.66 189.83,254.65 189.21,256.67 C188.17,260.06 190.75,265 193.55,265 C194.99,265 193.67,262.15 192.04,261.72 C190.37,261.28 190.21,260.76 190.96,258.15 C191.44,256.46 191.6,254.17 191.3,253.04 C190.99,251.84 191.25,251 191.94,251 C192.59,251 192.84,251.45 192.5,252 C191.81,253.11 193.29,253.38 194.34,252.33 C194.71,251.96 197.37,251.57 200.25,251.45 C203.85,251.31 205.41,250.86 205.21,250 C205.05,249.32 204.76,246.69 204.56,244.17 C204.19,239.53 201.2,235 198.5,235 C196.47,235 195.7,231.75 197.49,230.74 C198.83,230 198.61,229.44 196.03,227.03 C194.16,225.28 193,223.2 193,221.6 C193,218.92 190.54,217.9 189.75,220.25 C189.52,220.94 189.37,219.81 189.42,217.75 C189.46,215.69 189.84,214 190.25,214 C190.66,214 191,213.33 191,212.5 C191,211.68 190.33,211 189.5,211 C188.68,211 187.97,210.66 187.94,210.25 C187.4,203.81 186.74,200.09 185.78,198.2 C184.91,196.49 184.89,194.85 185.72,191.75 C186.67,188.21 186.58,187.39 185.16,186.22 C184.25,185.47 184.06,185.14 184.75,185.48 C186.17,186.2 186.12,186.35 186.54,179.2 C186.7,176.28 187.35,173.29 187.96,172.54 C188.8,171.53 188.76,171.06 187.79,170.67 C186.75,170.25 186.75,169.97 187.83,169.22 C188.56,168.71 189.05,167.66 188.92,166.89 C188.79,166.13 189.25,164.15 189.95,162.5 C190.66,160.85 191.18,157.8 191.12,155.72 C190.98,150.69 233.41,151.46 243.5,158.55 C245.15,159.71 248.36,161.24 250.64,161.95 C257.14,163.99 257.74,164.55 256.15,167.11 C254.97,169.02 255,169.21 256.37,168.69 C257.3,168.33 258.34,168.78 258.9,169.78 C259.42,170.72 260.18,171.16 260.57,170.76 C260.97,170.36 263.03,171.6 265.15,173.52 C267.27,175.43 269.68,177 270.5,177 C272.2,177 272.51,178.57 271,179.5 C268.92,180.79 270.13,182 273.5,182 C275.42,182 276.95,182.34 276.88,182.75 C276.59,184.62 277.09,186 278.06,186 C278.64,186 278.81,185.44 278.43,184.75 C278.05,184.06 279.24,185.08 281.09,187 C282.93,188.93 284.33,190.88 284.19,191.36 C284.04,191.83 284.39,192.77 284.96,193.45 C285.52,194.13 285.71,194.96 285.38,195.29 C285.05,195.62 285.99,197.02 287.48,198.39 C288.97,199.77 289.89,201.37 289.53,201.95 C289.17,202.53 289.53,203 290.32,203 C291.11,203 292.32,203.68 293,204.5 C294.37,206.15 300,206.58 300,205.03 C300,204.5 299.33,204.32 298.5,204.64 C297.57,205 297,204.63 297,203.68 C297,202.83 297.68,201.47 298.5,200.64 C299.32,199.82 300,198.54 300,197.81 C300,197.08 301.1,195.29 302.45,193.84 C303.79,192.39 304.91,190.37 304.93,189.35 C304.96,188.33 305,185.82 305.02,183.77 C305.06,180.42 305.39,179.95 308.28,179.2 C310.99,178.49 311.5,177.89 311.5,175.42 C311.5,173.6 312.55,171.34 314.25,169.5 C315.76,167.86 317,165.95 317,165.26 C317,163.67 318.24,163.64 319.8,165.2 C320.73,166.13 321,165.94 321,164.32 C321,163.18 321.68,161.68 322.5,161 C323.33,160.32 324,159.14 324,158.38 C324,157.62 324.4,157 324.89,157 C326.42,157 327.09,160.18 325.88,161.65 C324.95,162.77 325.05,162.92 326.36,162.42 C328.31,161.67 328.46,159.71 326.76,156.99 C322.74,150.55 345.91,152.84 349.65,154.19 C351.52,154.87 352.85,155.95 352.6,156.6 C352.35,157.24 352.78,158.66 353.54,159.75 C354.3,160.84 354.61,162.06 354.22,162.45 C353.82,162.84 354.27,163.72 355.2,164.41 C357.27,165.92 356.56,170.15 354.38,169.31 C353.24,168.88 353.2,168.47 354.16,167.31 C355.42,165.79 353.95,164.05 351.38,164.02 C349.86,163.99 350.18,168.3 351.77,169.31 C352.47,169.76 352.78,170.55 352.46,171.07 C352.14,171.59 352.59,172.29 353.46,172.62 C354.65,173.08 354.78,173.56 353.95,174.56 C353.35,175.29 352.27,175.66 351.56,175.38 C350.85,175.11 350.05,175.71 349.79,176.7 C349.38,178.27 349.84,178.47 353.16,178.16 C358.53,177.64 358.08,179.72 352.5,181.21 C350.03,181.87 348,182.77 348,183.21 C348,183.64 347.29,184 346.42,184 C344.73,184 345.31,178.1 347.11,176.95 C348.27,176.21 345.24,172 343.55,172 C341.68,172 340.66,168.83 342.22,167.86 C343.02,167.35 343.62,167.6 343.82,168.53 C344.3,170.7 345.68,170.32 346.34,167.83 C347.38,163.83 342.18,163.32 338.2,167.03 C336.76,168.37 335.96,168.56 335.12,167.72 C334.46,167.06 334,167.01 334,167.6 C334,168.15 334.5,169.1 335.11,169.71 C335.72,170.32 335.91,171.34 335.52,171.96 C334.39,173.79 331.77,170.99 332.39,168.62 C332.94,166.53 331.5,164 329.76,164 C329.21,164 328.98,165.12 329.24,166.5 C329.51,167.87 329.34,169 328.86,169 C328.39,169 328,168.55 328,168 C328,167.45 327.33,167 326.5,167 C325.59,167 325,167.93 325,169.38 C325,172.07 328.84,173.77 330.28,171.71 C330.79,170.99 330.98,172 330.77,174.25 C330.36,178.44 330.7,179 331.81,175.98 C332.45,174.27 332.82,174.15 334.26,175.23 C336.51,176.91 335.08,179.15 331.63,179.35 C328.67,179.52 326.43,184.22 327.24,188.5 C327.53,189.99 326.85,191.89 325.38,193.68 C324.11,195.23 323.05,197.4 323.02,198.5 C322.93,201.5 317.06,207.59 312.25,209.65 C307.76,211.58 306.23,213.62 310.5,212 C312.65,211.18 313,211.33 313,213.06 C313,214.69 313.34,214.89 314.8,214.1 C315.8,213.57 317.21,213.51 317.94,213.96 C318.94,214.58 318.74,214.95 317.13,215.46 C315.96,215.83 315,216.55 315,217.07 C315,217.58 314.4,218 313.67,218 C312.77,218 312.49,218.95 312.79,221 C313.03,222.68 313.84,224 314.61,224 C315.38,224 316,224.5 316,225.12 C316,225.73 315.15,226.01 314.11,225.74 C311.13,224.96 309.33,226.48 310.94,228.42 C311.66,229.29 311.85,230 311.37,230 C309.43,230 310.23,234.94 312.27,235.59 C314.14,236.18 314.03,236.37 311.17,237.57 C307.9,238.95 306.54,241.78 309.75,240.53 C312.64,239.41 313.23,239.44 313.71,240.75 C313.96,241.44 313.5,242 312.69,242 C311.88,242 310.95,242.68 310.64,243.5 C310.32,244.33 309.28,245 308.33,245 C307.03,245 306.88,245.28 307.75,246.15 C308.61,247.01 309.57,246.86 311.6,245.52 C314.11,243.88 314.26,243.88 313.65,245.46 C313.29,246.4 313,247.58 313,248.08 C313,248.59 312.33,249 311.5,249 C310.33,249 310.43,249.43 311.98,250.98 C313.07,252.07 314.64,252.69 315.48,252.37 C316.38,252.02 317.86,252.75 319.08,254.14 C321.27,256.63 321.26,256.21 319.02,251.73 C316.62,246.91 319.27,246.29 322.35,250.96 C323.83,253.18 325.47,255 326.01,255 C328.29,255 326.77,256.58 324.29,256.79 C319.65,257.17 319.14,259 323.68,259 C326.02,259 328.27,259.62 328.96,260.45 C330.44,262.23 329.4,266 327.43,266 C326.64,266 326,266.45 326,267 C326,269.1 316.85,268.16 316.29,266 C315.93,264.63 314.93,264 313.13,264.02 C311.27,264.03 310.9,264.28 311.86,264.89 C312.88,265.54 312.92,265.86 312,266.17 C309.84,266.89 313.35,275.43 315.97,275.83 C317.43,276.05 317.96,276.65 317.58,277.64 C317.16,278.76 317.51,278.97 319.01,278.5 C320.47,278.04 321,278.32 321,279.57 C321,281.89 325.89,286.26 327.7,285.56 C328.6,285.22 328.99,285.48 328.71,286.25 C328.46,286.94 328.92,288.26 329.73,289.19 C332.1,291.92 330.77,293.41 328.07,291.06 C326.75,289.92 325.42,289.25 325.1,289.57 C324.78,289.89 325.3,290.59 326.26,291.12 C327.22,291.66 328,292.75 328,293.55 C328,294.35 328.9,295 330,295 C331.93,295 332.61,296.06 331.42,297.24 C331.11,297.56 329.53,297.44 327.92,296.98 C324.91,296.11 324.42,296.54 325.86,298.81 C326.39,299.64 327.62,299.88 329.24,299.48 C330.68,299.11 332.07,299.31 332.45,299.92 C332.82,300.52 332.42,301 331.56,301 C330.7,301 330,301.68 330,302.5 C330,303.33 329.47,304 328.83,304 C328.19,304 327.96,304.29 328.31,304.64 C328.66,305 329.64,304.72 330.48,304.02 C332.75,302.13 332.32,304.4 330,306.5 C328.87,307.53 328,307.81 328,307.15 C328,306.52 327.41,306 326.69,306 C325,306 320.67,310.01 321.49,310.82 C321.83,311.16 322.5,310.81 322.97,310.04 C323.97,308.44 327,307.72 327,309.09 C327,309.59 326.33,310 325.5,310 C324.67,310 324,310.89 324,312 C324,313.1 324.45,314 325,314 C325.55,314 325.89,313.49 325.75,312.88 C325.61,312.26 325.99,311.57 326.6,311.34 C327.23,311.11 327.73,312.21 327.78,313.97 C327.85,316.41 327.46,317 325.77,317 C324.61,317 323.96,317.3 324.33,317.66 C324.69,318.03 326.62,318.26 328.61,318.19 C330.6,318.11 333.15,318.55 334.29,319.15 C335.88,320.01 336.58,319.93 337.42,318.79 C338.01,317.99 339.51,316.79 340.75,316.13 C341.99,315.47 343,314.33 343,313.59 C343,312.85 343.68,311.68 344.5,311 C345.77,309.95 346,310.15 346,312.32 C346,313.73 346.5,315.19 347.11,315.57 C348.72,316.56 350.11,313.91 349.5,311 C349.06,308.9 349.14,308.78 350.04,310.25 C350.62,311.21 351.82,312 352.7,312 C354.18,312 354.18,311.85 352.71,310.23 C350.44,307.73 352.11,304.99 354.86,306.69 C357.15,308.11 358.44,307.24 356.87,305.34 C355.54,303.74 357.36,301 359.74,301 C360.89,301 360.98,300.68 360.13,299.65 C359.27,298.62 359.48,297.88 361,296.5 C362.1,295.5 363,294.08 363,293.35 C363,292.56 364.09,292 365.61,292 C367.51,292 368.06,291.6 367.64,290.5 C367.32,289.68 367.55,289 368.15,289 C368.74,289 369.02,288.2 368.77,287.22 C368.19,285.01 370.58,282.63 372.6,283.4 C373.45,283.73 373.84,283.55 373.49,282.99 C373.16,282.44 372.19,282 371.33,282 C370.43,282 370.01,281.43 370.31,280.62 C370.61,279.86 370.34,278.74 369.72,278.12 C368.89,277.29 368.98,277 370.06,277 C370.86,277 372.08,276.1 372.77,275 C373.83,273.3 373.77,273 372.35,273 C370.86,273 370.84,272.83 372.21,271.25 C374.26,268.9 375.4,261.3 373.79,260.76 C373.13,260.54 372.47,258.63 372.34,256.52 C372.2,254.4 371.61,252.38 371.02,252.01 C370.43,251.65 369.67,249.02 369.33,246.17 C368.91,242.57 368.28,241 367.25,241 C366.26,241 366.01,240.44 366.48,239.25 C367.69,236.19 368.17,226.92 367.18,225.68 C366.66,225.03 365.9,222.53 365.5,220.12 C364.98,216.98 363.87,214.95 361.53,212.89 C358.25,210.01 357.97,209.04 356.74,196 C356.38,192.23 360.38,192.48 360.82,196.25 C361.06,198.41 361.65,199 363.57,199 C366.12,199 366.97,201.41 364.75,202.38 C364.06,202.68 364.74,202.66 366.26,202.35 C368.51,201.88 368.91,202.08 368.4,203.39 C368.06,204.27 366.93,205 365.89,205 C363.48,205 363.51,205.51 366.09,208.09 C367.3,209.3 367.98,210.97 367.7,212.04 C367.32,213.51 367.86,213.95 370.36,214.19 C373.05,214.46 373.5,214.89 373.5,217.28 C373.5,218.81 374.12,220.45 374.88,220.92 C376.63,222.01 375.29,224.33 373.35,223.58 C372.53,223.27 372.17,223.46 372.51,224.02 C372.85,224.56 374.17,224.74 375.45,224.42 C378.28,223.71 379.54,225.31 377.49,227.01 C375.49,228.67 375.58,232 377.62,232 C378.95,232 379.02,232.27 378,233.5 C377.14,234.54 377.1,235 377.88,235 C378.49,235 379,235.68 379,236.5 C379,237.33 379.68,238 380.5,238 C382.27,238 382.44,236.84 380.89,235.29 C379.75,234.15 380.45,232 381.94,232 C383.55,232 383.79,237.39 382.28,239.69 C380.74,242.04 381.05,242.39 384.39,242.03 C385.78,241.88 386.11,242.27 385.64,243.5 C385.29,244.41 385,245.79 385,246.55 C385,247.37 384.39,247.7 383.5,247.36 C382.67,247.05 382,247.28 382,247.89 C382,248.5 382.56,249.01 383.25,249.03 C383.94,249.05 383.72,249.51 382.75,250.08 C380.07,251.64 380.65,253.13 383.65,252.37 C385.51,251.91 386.09,252.05 385.59,252.85 C385.2,253.48 384.23,254 383.44,254 C382.65,254 382,254.45 382,255 C382,255.55 382.9,256 384,256 C385.1,256 386,256.45 386,257 C386,257.55 385.34,258 384.54,258 C383.73,258 382.54,259.01 381.89,260.25 C380.77,262.39 380.8,262.42 382.6,260.88 C384.58,259.2 386.57,259.43 388.73,261.59 C390.5,263.36 390.31,263.89 388.11,263.32 C387.07,263.05 385.92,263.31 385.55,263.91 C385.18,264.52 385.57,265 386.44,265 C387.3,265 388,265.45 388,266 C388,266.55 388.85,267 389.89,267 C394.18,267 393.06,270 388.72,270.15 C385.73,270.26 385.3,270.42 387.25,270.72 C389.77,271.1 391.32,274 389,274 C388.45,274 388,274.44 388,274.97 C388,275.5 388.62,275.7 389.38,275.41 C390.24,275.08 390.98,275.8 391.37,277.35 C391.71,278.7 392.28,280.57 392.64,281.49 C393.12,282.75 392.8,283.1 391.39,282.88 C390.35,282.71 388,283.97 386.16,285.67 C384.13,287.55 382.11,288.58 381.02,288.29 C380.03,288.04 378.9,288.35 378.51,288.98 C378.08,289.67 378.64,290.35 379.9,290.68 C381.05,290.99 382.01,291.97 382.03,292.87 C382.06,294.14 382.5,293.98 384.03,292.14 C385.18,290.76 386.62,290.02 387.5,290.36 C389.19,291.01 389.57,294 387.96,294 C387.31,294 387.39,294.83 388.17,296.25 C391.84,302.9 388.32,307.59 383.83,302.03 C382.79,300.76 381.62,300.04 381.22,300.44 C380.83,300.84 381.51,301.99 382.75,303 C385.65,305.34 385.59,306 382.48,306 C380.29,306 380.04,306.33 380.59,308.5 C381.23,311.06 379.64,312.07 378.61,309.75 C378.31,309.06 378.16,310.08 378.28,312 C378.48,315.11 378.2,315.53 375.85,315.81 C373.04,316.13 370.96,320 373.59,320 C374.37,320 375,319.41 375,318.7 C375,317.9 376.34,317.36 378.5,317.3 C382.81,317.18 382.83,317.5 378.75,321.37 C376.96,323.07 375.03,325.37 374.44,326.48 C373.85,327.61 372.61,328.36 371.62,328.19 C370.54,328 369.65,328.64 369.34,329.82 C368.76,332.04 365.69,331.75 362.73,329.18 C360.62,327.36 362.57,325.4 364.72,327.18 C365.67,327.97 366,327.84 366,326.68 C366,324.32 364.08,323.62 362.19,325.29 C361.24,326.13 359.07,326.66 357.25,326.51 C355.02,326.32 354,326.67 354,327.62 C354,328.38 354.9,329 356,329 C357.11,329 358,329.67 358,330.5 C358,331.33 358.47,332 359.04,332 C359.62,332 359.96,331.44 359.8,330.75 C359.27,328.44 360.47,328.65 364.75,331.58 C367.61,333.55 368.86,335.07 368.59,336.25 C368.35,337.3 368.77,338 369.65,338 C370.46,338 370.88,338.38 370.59,338.85 C369.81,340.11 376.87,345.99 378.44,345.38 C381.57,344.18 380.75,347.03 377.52,348.56 C375.59,349.48 374,350.63 374,351.11 C374,352.41 375.77,352.2 376.22,350.84 C377.8,346.09 384,354.07 384,360.87 C384,362.1 384.64,363 385.5,363 C387.66,363 387.36,363.93 384.45,366.22 C380.91,369.01 382.15,369.68 385.83,366.97 C389.46,364.28 392.14,365.24 388.77,368.02 C386.5,369.9 386.5,369.9 388.75,369.33 C390.52,368.89 391,369.19 391,370.77 C391,372.41 390.42,372.72 387.75,372.5 C384.42,372.22 382,373.41 382,375.32 C382,376.02 382.42,375.98 383.2,375.2 C384.81,373.59 386,373.69 386,375.43 C386,376.22 387.01,377.03 388.25,377.24 C390.45,377.61 390.44,377.65 387.83,378.93 C386.24,379.72 385.37,380.81 385.69,381.62 C385.98,382.38 385.72,383 385.11,383 C384.5,383 384,382.33 384,381.5 C384,380.68 383.35,380 382.55,380 C381.75,380 380.64,379.21 380.08,378.25 C379.52,377.29 379.05,377.04 379.03,377.69 C379.01,378.35 379.41,379.13 379.91,379.44 C381.22,380.26 380.04,384.15 377.69,386.75 C375.97,388.65 375.9,389 377.27,389 C378.16,389 379.58,388.01 380.43,386.79 C381.64,385.06 382.25,384.85 383.19,385.79 C384.14,386.74 384,387 382.58,387 C381.06,387 380.97,387.26 382.01,388.51 C383.61,390.44 384.25,395.73 382.98,396.52 C382.44,396.85 382,396.42 382,395.56 C382,393.7 380.35,393.47 379.74,395.25 C379.26,396.64 381.77,401 383.05,401 C383.5,401 384.17,400.04 384.54,398.87 C385.07,397.19 385.41,397.03 386.09,398.12 C387.28,399.99 387.23,401.26 386,400.5 C385.45,400.16 385,400.58 385,401.44 C385,402.3 384.38,403 383.62,403 C381.29,403 379.35,405.98 381.02,407.01 C382.11,407.69 382.17,408.36 381.28,410.18 C380.66,411.46 380.14,413.98 380.14,415.79 C380.13,418.16 379.28,419.87 377.07,421.94 C373.69,425.09 371,425.67 371,421.81 C371,420.69 370.27,420 369.06,420 C367.59,420 367.17,420.63 367.31,422.64 C367.42,424.09 365,425.23 365,423.64 C365,418.88 356.72,425.42 357.6,424.55 C358.48,423.67 358.94,422.27 358.62,421.45 C357.85,419.44 352.57,424.52 352.65,423.59 C352.78,422.05 352.59,422.04 350.43,423.45 C347.83,425.15 321.3,428.93 318.04,422.77 L318.04,422.77 ZM324.42,422.39 C327.13,421.35 326.37,418.69 323.56,419.4 C322.22,419.73 320.84,419.56 320.5,419 C319.61,417.55 316.76,417.77 317.25,419.25 C317.96,421.41 322.17,423.25 324.42,422.39 L324.42,422.39 ZM345.46,421.65 C346.71,420.74 346.94,420.08 346.17,419.61 C344.72,418.71 340.76,420.8 341.53,422.05 C342.33,423.34 343.28,423.24 345.46,421.65 L345.46,421.65 ZM330,403.43 C330,401.97 333.33,400.5 333.76,401.77 C333.92,402.26 336.54,402.45 339.59,402.2 C344.58,401.79 345.17,401.95 345.67,403.86 C345.98,405.02 346.63,405.73 347.13,405.42 C347.63,405.11 347.77,404.44 347.45,403.92 C347.13,403.4 348.13,403.06 349.68,403.17 C356.17,403.62 358,403.09 358.03,400.75 C358.06,398.67 358.16,398.63 359.39,400.25 C360.12,401.21 361.57,401.99 362.61,401.97 C364.98,401.93 368.74,397.08 367.16,396.1 C365.51,395.08 367.33,389.47 369.27,389.63 C371.65,389.82 370.21,387.27 367.56,386.6 C364.68,385.88 363.29,380.57 365.42,378.44 C366.19,377.67 366.63,376.01 366.4,374.77 C366.17,373.52 366.25,373.06 366.57,373.75 C366.9,374.44 367.58,375 368.08,375 C369.46,375 369.19,372.25 367.75,371.58 C366.95,371.21 366.87,370.82 367.55,370.48 C368.12,370.2 368.42,368.45 368.2,366.6 C367.99,364.75 368.3,362.93 368.9,362.56 C369.51,362.19 370,362.44 370,363.13 C370,363.84 370.59,363.57 371.36,362.53 C372.81,360.54 371.06,354.06 368.3,351.2 C367.61,350.49 366.59,349.14 366.04,348.2 C365.35,347.03 364.79,346.85 364.27,347.62 C362.38,350.36 359.15,350.19 358.82,347.33 C358.56,345.11 357.99,344.56 355.9,344.53 C351.52,344.48 349.74,342.33 351.66,339.39 C353.21,337.03 353.19,336.99 350.87,337.86 C348.83,338.62 348.53,339.33 348.74,342.92 C348.88,345.51 348.59,346.87 347.97,346.48 C347.42,346.14 347.19,345.49 347.47,345.04 C347.75,344.59 347.31,343.67 346.49,342.99 C345.67,342.31 345,340.91 345,339.88 C345,338.84 344.55,338 344,338 C343.45,338 343,338.77 343,339.7 C343,341.02 342.73,341.13 341.8,340.2 C340.07,338.47 339,338.72 339,340.88 C339,341.91 338.33,343.32 337.5,344 C336.55,344.79 336,344.85 336,344.18 C336,343.6 336.45,342.84 337,342.5 C338.63,341.49 338.15,340.27 335.9,339.68 C334.74,339.38 334.08,338.69 334.42,338.14 C334.76,337.59 334.67,336.91 334.22,336.64 C333.78,336.36 333.34,337.07 333.26,338.22 C332.94,342.5 331.09,342.43 330.4,338.1 C329.72,333.87 329.72,333.87 326.56,336.94 C323.41,340 321,340.89 321,339 C321,338.45 320.33,338 319.5,338 C318.68,338 318,338.66 318,339.47 C318,340.36 317.41,340.71 316.5,340.36 C315.46,339.96 315,340.43 315,341.92 C315,343.96 314.9,343.98 312.49,342.4 C310.02,340.78 309.99,340.79 310.83,343.08 C311.31,344.36 313.34,346.26 315.35,347.3 C317.36,348.34 319,349.58 319,350.04 C319,351.53 316.8,352.29 316.04,351.06 C315.63,350.4 314.67,349.74 313.9,349.58 C313.13,349.43 311.75,348.97 310.83,348.57 C309.91,348.17 308.26,348.33 307.16,348.92 C305.67,349.71 305.03,349.66 304.66,348.74 C304.38,348.06 304.12,348.48 304.08,349.67 C304.04,350.86 303.49,352 302.86,352.21 C301.61,352.63 303.51,360 304.86,360 C305.62,360 308.18,366.16 307.64,366.7 C307.45,366.88 306.04,365.02 304.48,362.56 C302.93,360.1 301.26,358.34 300.78,358.64 C300.28,358.94 300.3,359.68 300.82,360.34 C302.21,362.1 303.19,368.77 302.14,369.41 C300.65,370.33 298.78,367.27 299.48,365.05 C300.28,362.53 298.41,362.32 295.85,364.64 C294.47,365.88 293.71,366 292.68,365.15 C291.93,364.53 291.01,364.33 290.63,364.7 C290.26,365.08 289.1,365.51 288.07,365.67 C286.06,365.98 284.46,363.45 286.04,362.47 C287.06,361.84 287.39,358 286.43,358 C285.5,358 283.44,360.36 282.73,362.25 C281.94,364.33 280.42,364.54 279.7,362.67 C279.41,361.92 277.52,361.27 275.4,361.19 C273.03,361.1 271.26,360.43 270.69,359.4 C269.99,358.15 269.58,358.06 268.99,359.01 C268.44,359.91 268.04,359.69 267.58,358.24 C267.22,357.13 265.99,355.97 264.84,355.67 C263.44,355.3 262.94,354.6 263.34,353.56 C263.75,352.48 263.35,352 262.03,352 C259.54,352 258.42,353.84 260.44,354.61 C261.36,354.97 261.95,356.3 261.88,357.86 C261.81,359.55 261.6,359.87 261.31,358.75 C260.79,356.76 257,356.33 257,358.26 C257,358.96 258.13,360.37 259.5,361.4 C260.88,362.44 262,364.17 262,365.26 C262,366.34 263.8,368.98 266,371.12 C268.2,373.25 270,375.39 270,375.88 C270,376.36 271.34,377.31 272.99,377.99 C274.63,378.68 275.73,379.63 275.43,380.12 C275.13,380.6 275.49,381 276.24,381 C278.52,381 283,383.44 282.66,384.49 C282.22,385.85 284.51,388 286.4,388 C287.4,388 287.72,388.56 287.32,389.61 C286.8,390.96 287.21,391.11 289.85,390.53 C292.94,389.85 294.37,391.24 291.75,392.38 C291.06,392.68 291.69,392.68 293.14,392.38 C294.59,392.08 296.08,392.32 296.45,392.92 C296.82,393.51 296.64,394 296.06,394 C295.48,394 295,394.37 295,394.83 C295,395.28 296.28,395.47 297.84,395.24 C299.61,394.98 301.3,395.44 302.33,396.47 C303.24,397.38 304.49,397.82 305.1,397.44 C306.7,396.45 308.11,399.16 306.82,400.72 C305.39,402.44 307.03,402.29 309.42,400.49 C311.14,399.19 311.49,399.25 312.78,401.1 C313.69,402.39 314.94,402.99 316.12,402.68 C317.47,402.32 318,402.72 318,404.09 C318,406.43 319.32,406.54 321.47,404.39 C322.96,402.9 323.18,403.02 324.25,405.86 C325.45,409.03 330,407.11 330,403.43 L330,403.43 ZM320.52,345.91 C320.8,344.47 320.5,343.98 319.57,344.33 C318.64,344.69 318.38,344.25 318.73,342.93 C319.32,340.66 320.83,340.4 321.61,342.44 C321.94,343.28 322.86,343.63 323.83,343.28 C325.01,342.86 324.78,343.47 323.08,345.34 C320.16,348.54 320,348.58 320.52,345.91 L320.52,345.91 ZM373.2,402.8 C370.87,400.47 371.71,397.08 374.5,397.59 C377.37,398.11 377.85,396.52 375.24,395.13 C372.7,393.77 370.25,395.92 370.24,399.52 C370.22,403.21 370.67,404 372.76,404 C374.04,404 374.13,403.73 373.2,402.8 L373.2,402.8 ZM251.32,400.75 C250.23,395.82 249.98,395.42 248.98,397.03 C248.21,398.25 247.71,398.28 245.99,397.22 C243.82,395.87 241.54,396.45 242.55,398.09 C242.87,398.61 243.44,398.85 243.82,398.63 C244.19,398.41 246.08,399.28 248,400.56 C249.93,401.84 251.57,402.91 251.66,402.94 C251.74,402.97 251.59,401.99 251.32,400.75 L251.32,400.75 ZM215.29,393 C215.58,391.9 215.67,391 215.49,391 C215.31,391 214.45,390.73 213.58,390.39 C212.47,389.97 212,390.37 212,391.73 C212,395.28 214.44,396.23 215.29,393 L215.29,393 ZM210.5,387.99 C210.5,385.84 207.59,386.15 207.17,388.34 C206.92,389.68 207.32,390.08 208.66,389.83 C209.67,389.63 210.5,388.8 210.5,387.99 L210.5,387.99 ZM227.35,383.31 C228.47,382.2 232.4,382.17 233.77,383.27 C235.42,384.58 236.72,383.32 235.24,381.84 C233.72,380.32 234.81,375.01 237.18,372.39 C238.85,370.54 238.92,369.93 237.8,367.47 C236.78,365.23 236.78,364.57 237.78,364.24 C238.71,363.93 238.55,362.9 237.13,360.16 C232.85,351.9 231.47,347.68 232.88,347.21 C233.89,346.87 233.93,346.57 233.04,346.02 C230.71,344.58 230.46,337 232.74,337 C234.9,337 234.27,328.4 232,327 C228.89,325.07 226.41,315 229.05,315 C230.54,315 229.54,309.64 227.71,307.76 C226.67,306.69 226.25,305.42 226.71,304.71 C228.01,302.71 229.72,290 228.69,290 C228.17,290 228.27,289.38 228.9,288.62 C229.53,287.86 229.95,285.88 229.82,284.22 C229.69,282.56 230.07,280.59 230.66,279.85 C233.21,276.63 230.86,273.27 226.94,274.52 C224.05,275.43 223.64,273.09 226.5,272 C229.94,270.69 228.76,268.9 224.96,269.66 C222.84,270.08 221.99,269.86 221.97,268.88 C221.95,268.07 220.94,268.64 219.52,270.25 C217.63,272.4 216.21,273 213.05,273 C210.82,273 209.05,273.34 209.12,273.75 C209.51,276.24 208.62,276.71 203.84,276.56 C201.01,276.47 199.21,276.57 199.84,276.78 C200.48,276.99 201,277.83 201,278.65 C201,279.5 201.74,280 202.75,279.84 C203.71,279.68 205.06,279.9 205.74,280.33 C206.56,280.84 206.8,280.63 206.44,279.71 C206.06,278.71 206.77,278.28 208.93,278.22 C212.67,278.11 213.75,279.53 211.03,280.99 C209.91,281.58 209,281.77 209,281.41 C209,281.05 208.44,281.22 207.75,281.79 C206.38,282.92 201.3,282.29 200.43,280.88 C199.37,279.17 197.18,279.97 197.68,281.88 C198,283.1 197.35,284.34 195.86,285.38 C194,286.69 193.89,287 195.28,287 C197.25,287 197.63,289.64 195.75,290.28 C195.06,290.52 195.29,290.59 196.25,290.45 C198.47,290.12 198.54,292.6 196.35,293.83 C195.34,294.39 194.94,295.4 195.32,296.4 C195.69,297.36 195.2,298.8 194.15,299.85 C193.16,300.84 192.06,302.41 191.7,303.33 C191.35,304.25 190.15,305 189.03,305 C186.5,305 186.49,305.53 188.94,308.16 C190.85,310.22 190.85,310.3 188.91,315.23 C186.56,321.2 187.81,324.68 190.99,321.01 C192.84,318.88 195,318.33 195,320 C195,320.55 194.35,321 193.56,321 C192.76,321 191.53,321.79 190.81,322.75 C190.09,323.71 187.7,325.35 185.5,326.39 C183.12,327.51 182.05,328.47 182.87,328.76 C183.62,329.03 184.66,328.63 185.19,327.87 C185.94,326.81 186.27,326.78 186.66,327.75 C186.94,328.44 188.25,329 189.58,329 C190.91,329 192,329.47 192,330.04 C192,330.62 191.4,330.96 190.68,330.79 C188.16,330.23 181.91,333.32 182.27,334.95 C182.46,335.8 183.18,336.38 183.86,336.23 C185.91,335.79 188.2,338.79 187.5,341 C186.76,343.32 188.76,343.79 189.64,341.5 C190.27,339.85 193,339.42 193,340.97 C193,341.5 193.68,341.68 194.5,341.36 C198.04,340 195.59,342.14 191.25,344.2 C187.01,346.21 186.77,346.49 189.04,346.77 C191.32,347.06 191.58,347.55 191.65,351.6 C191.7,354.95 191.38,355.98 190.39,355.6 C188.61,354.91 187.41,357.02 189.02,358.01 C189.72,358.44 190.01,359.54 189.66,360.44 C189.24,361.55 189.73,362.33 191.19,362.87 C192.62,363.4 192.95,363.91 192.17,364.39 C190.06,365.7 190.78,368.2 193.06,367.48 C194.48,367.03 195.07,367.24 194.95,368.16 C194.59,370.75 195.01,372 196.25,372.03 C197.82,372.07 201,374.73 203.39,378 C205.16,380.41 205.21,380.42 204.71,378.25 C204.27,376.38 204.61,376 206.7,376 C208.44,376 209.05,376.43 208.68,377.4 C208.02,379.1 212.08,380.09 214.4,378.79 C216.34,377.71 216.64,379.96 214.8,381.8 C213.87,382.73 213.93,383 215.1,383 C215.93,383 217.06,382.54 217.63,381.97 C218.33,381.27 219.58,381.42 221.58,382.46 C224.79,384.14 226.31,384.36 227.35,383.31 L227.35,383.31 ZM199.42,290.75 C199.74,290.06 200.27,288.74 200.6,287.81 C200.93,286.88 202.51,285.83 204.1,285.48 C205.7,285.13 207,284.43 207,283.92 C207,283.41 207.68,283 208.5,283 C211.06,283 210.15,285.75 207.25,286.79 C205.74,287.34 203.51,288.73 202.29,289.89 C199.82,292.25 198.54,292.64 199.42,290.75 L199.42,290.75 ZM219,274.61 C219,272.72 221.71,271.79 222.35,273.47 C222.95,275.04 222.19,276 220.33,276 C219.6,276 219,275.37 219,274.61 L219,274.61 ZM370.88,381.25 C370.81,379.48 370.6,379.14 370.3,380.29 C369.98,381.54 369.25,381.9 367.92,381.47 C366.58,381.05 366,381.34 366,382.43 C366,383.44 366.9,384 368.5,384 C370.59,384 370.98,383.55 370.88,381.25 L370.88,381.25 ZM253,380.98 C253,380.42 254.13,379.44 255.5,378.82 C258.23,377.57 258.9,375 256.5,375 C255.68,375 255,375.53 255,376.19 C255,376.84 254.02,378.41 252.83,379.69 C251.63,380.96 251.18,382 251.83,382 C252.47,382 253,381.54 253,380.98 L253,380.98 ZM185,347.89 C185,343.87 183.31,344.26 182.82,348.39 C182.54,350.85 182.78,351.64 183.71,351.28 C184.42,351.01 185,349.48 185,347.89 L185,347.89 ZM277.5,342 C277.16,341.45 277.55,341 278.36,341 C279.17,341 280.1,341.56 280.42,342.25 C280.88,343.24 281.13,343.23 281.6,342.21 C282.07,341.18 282.5,341.17 283.67,342.14 C284.56,342.88 285.42,342.99 285.83,342.44 C286.2,341.92 287.4,341 288.5,340.4 C289.6,339.79 290.64,338.15 290.81,336.76 C291.04,334.84 291.57,334.34 292.96,334.7 C294.22,335.03 295.02,334.5 295.48,333.06 C295.85,331.89 297.25,329.84 298.59,328.5 C301.33,325.76 303.07,321.93 303.59,317.5 C303.78,315.85 304.48,312.78 305.15,310.67 C306.17,307.49 306.13,306.68 304.94,305.88 C303.75,305.08 303.88,304.64 305.75,303.33 C308.49,301.41 308.77,299.52 306.1,300.95 C303.6,302.28 304.21,299.77 308.16,292.37 C311.12,286.82 312,283.1 309.6,286.26 C308.42,287.82 308.12,287.85 307.01,286.51 C306.32,285.68 305.14,285 304.38,285 C303.62,285 303,284.38 303,283.62 C303,282.85 301.93,281.53 300.62,280.67 C299.31,279.81 295.63,276.5 292.45,273.3 C289.27,270.11 286.94,268.25 287.27,269.16 C287.77,270.56 287,270.88 282.43,271.16 C277.79,271.45 277,271.24 277,269.75 C277,268.79 276.79,268 276.53,268 C275.11,268 267,274.6 267,275.75 C267,276.5 266.6,276.87 266.11,276.57 C265.63,276.27 264.67,276.69 263.99,277.51 C263.13,278.54 263.1,279 263.88,279 C264.49,279 265,279.45 265,280 C265,280.55 264.5,280.89 263.88,280.75 C262.38,280.41 258.79,286.83 259.64,288.32 C260.02,288.97 259.94,289.16 259.48,288.74 C258.46,287.81 253.85,291.95 254.59,293.15 C254.88,293.62 254.64,294 254.06,294 C251.24,294 253.48,295.91 257,296.5 C259.2,296.87 261,297.64 261,298.2 C261,298.77 259.88,299.02 258.52,298.76 C256.28,298.33 256.09,298.54 256.66,300.89 C257.28,303.5 257.28,303.5 255.14,300.84 C253.96,299.38 253,297.72 253,297.15 C253,295.41 251.24,294.92 250.64,296.5 C250.33,297.32 250.89,298.78 251.9,299.74 C254.32,302.07 254.53,308.03 252.18,307.92 C251.24,307.88 251.02,307.63 251.69,307.36 C253.3,306.7 252.17,304 250.29,304 C249.35,304 249.01,304.56 249.39,305.5 C249.73,306.33 250.27,307.68 250.61,308.5 C250.94,309.33 250.72,310 250.11,310 C248.44,310 248.77,311.38 251.02,313.79 C252.13,314.99 253.32,317.33 253.65,319.01 C254.02,320.84 255.5,322.92 257.38,324.24 C259.1,325.44 260.65,326.78 260.83,327.21 C261.02,327.65 261.84,328 262.67,328 C263.49,328 263.96,328.56 263.71,329.25 C263.46,329.94 262.74,330.39 262.13,330.25 C261.51,330.11 261,330.45 261,331 C261,332.16 258.37,332.36 257.75,331.25 C257.52,330.84 257.46,331.06 257.63,331.75 C257.8,332.44 257.5,333 256.97,333 C256.44,333 256,333.4 256,333.89 C256,334.38 256.79,334.72 257.75,334.64 C258.94,334.54 259.6,335.34 259.81,337.14 C260.14,339.98 261.76,340.71 269.75,341.59 C273.31,341.98 274.01,341.76 274.06,340.28 C274.11,338.88 274.32,338.99 275.03,340.75 C275.53,341.99 276.43,343 277.03,343 C277.63,343 277.84,342.55 277.5,342 L277.5,342 ZM370,324.43 C370,321.97 368.07,319 366.46,319 C365.66,319 365,319.45 365,320 C365,320.55 365.45,321 366,321 C366.55,321 367,321.83 367,322.83 C367,323.84 367.3,324.97 367.67,325.33 C368.83,326.5 370,326.05 370,324.43 L370,324.43 ZM375.5,322 C377.55,319.74 377.24,319.58 373.5,321 C372.06,321.55 371.16,322.45 371.5,323 C372.42,324.49 373.49,324.23 375.5,322 L375.5,322 ZM191.82,288.67 C192.01,287.68 191.5,287 190.57,287 C189.65,287 189,287.85 189,289.08 C189,291.52 191.34,291.18 191.82,288.67 L191.82,288.67 ZM376.52,284.04 C376.24,283.58 376.71,282.94 377.57,282.61 C379.38,281.92 378.55,280 376.44,280 C375.5,280 375,281.06 375,283.06 C375,284.88 375.41,285.86 376.02,285.49 C376.58,285.14 376.8,284.49 376.52,284.04 L376.52,284.04 ZM192.44,278.16 C190.42,277.74 188.53,279.44 189.42,280.87 C189.84,281.55 190.78,281.31 192.08,280.21 C193.84,278.71 193.88,278.46 192.44,278.16 L192.44,278.16 ZM207,272.63 C207,271.03 211.63,269.88 215.37,270.56 C217.37,270.92 217.82,270.69 217.37,269.51 C217.05,268.68 216.27,267.94 215.64,267.87 C210.83,267.34 210,267.37 210,268.14 C210,268.61 209.14,269 208.08,269 C204.84,269 203,270.13 203,272.11 C203,273.33 203.7,274 205,274 C206.1,274 207,273.38 207,272.63 L207,272.63 ZM269,267.5 C269,265.58 268.55,264 268,264 C267.45,264 267,265.58 267,267.5 C267,269.43 267.45,271 268,271 C268.55,271 269,269.43 269,267.5 L269,267.5 ZM327.39,263.74 C328.9,261.34 327.09,260.15 325.42,262.44 C324.64,263.51 324,264.78 324,265.27 C324,266.61 326.21,265.61 327.39,263.74 L327.39,263.74 ZM241.25,252.34 C240.56,252.06 240,251.37 240,250.81 C240,250.25 240.72,250.06 241.59,250.4 C242.65,250.8 243.36,250.34 243.71,249 C244,247.9 244.63,247 245.12,247 C245.6,247 246,246.37 246,245.61 C246,244.84 246.68,243.95 247.5,243.64 C248.33,243.32 249,243.45 249,243.92 C249,245.75 255.75,245.63 256.9,243.79 C258.49,241.24 263,241.4 263,244 C263,245.1 263.5,246 264.11,246 C264.72,246 264.99,245.42 264.72,244.7 C264.37,243.79 265.24,243.4 267.61,243.4 C269.68,243.4 271,243.89 271,244.67 C271,245.42 271.65,245.69 272.6,245.32 C273.48,244.99 274.58,245.32 275.05,246.08 C275.51,246.83 276.22,247.11 276.63,246.7 C277.03,246.3 276.83,245.43 276.18,244.78 C274.36,242.96 274.78,241.79 277,242.5 C279.22,243.21 279.64,242.04 277.81,240.21 C276.9,239.3 277.13,238.49 278.84,236.67 C280.06,235.37 280.8,233.64 280.49,232.83 C280.14,231.91 280.8,230.9 282.21,230.18 C284.28,229.14 284.3,229.03 282.5,229.13 C279.15,229.3 278.71,229.06 279.85,227.68 C281.39,225.83 281.64,215.71 280.17,215.22 C278.64,214.71 278.65,212 280.17,212 C280.82,212 280.44,210.99 279.32,209.75 C278.21,208.51 276.98,206.61 276.6,205.53 C276.06,204.04 275.69,203.88 275.09,204.86 C274.47,205.87 274.12,205.75 273.58,204.35 C273.2,203.35 273.36,202.38 273.94,202.19 C275.45,201.68 275.25,199.45 273.56,198.05 C272.77,197.4 271.85,195.66 271.51,194.18 C270.74,190.79 267.65,187 265.65,187 C264.81,187 263.84,186.55 263.5,186 C262.73,184.76 258,184.67 258,185.89 C258,186.38 258.75,187.07 259.67,187.43 C260.95,187.92 261.06,188.34 260.15,189.25 C259.23,190.17 258.44,189.87 256.7,187.97 C252.49,183.37 249,178.32 249,176.81 C249,174.77 245.38,171.57 244.57,172.89 C244.22,173.45 243.35,173.69 242.64,173.42 C241.93,173.14 240.03,173.43 238.42,174.05 C236.82,174.67 233.37,175.3 230.77,175.45 C228.17,175.6 225.28,176.35 224.36,177.11 C222.91,178.31 222.74,178.29 223.17,177 C223.44,176.18 224.73,174.96 226.04,174.3 C228.27,173.18 228.3,173.05 226.52,172.37 C225.34,171.92 224.47,172.1 224.21,172.86 C223.68,174.45 221,172.38 221,170.38 C221,169.34 220.54,169.43 219.14,170.75 C217.53,172.27 217.48,172.66 218.74,173.68 C220.28,174.93 219.67,177 217.76,177 C216.45,177 212,180.97 212,182.13 C212,182.56 210.89,184.01 209.54,185.36 C207.47,187.44 207.22,188.29 207.97,190.9 C208.92,194.2 207.7,196.07 206.26,193.5 C205.65,192.41 205.4,192.99 205.4,195.48 C205.4,197.42 205.82,199 206.32,199 C206.83,199 206.69,199.67 206.01,200.49 C205.33,201.31 204.35,201.72 203.84,201.4 C202.62,200.65 200,202.86 200,204.66 C200,205.76 200.44,205.84 202,205 C203.1,204.41 204,204.13 204,204.38 C204,204.63 204.3,205.63 204.67,206.59 C205.19,207.95 204.96,208.2 203.67,207.7 C202.4,207.22 202,207.63 202,209.45 C202,212.85 203.03,215.1 204.25,214.35 C204.92,213.93 205.07,214.57 204.69,216.11 C203.81,219.59 205.35,221.78 207.45,220.04 C209.32,218.49 209.51,218.63 210.35,222.14 C210.77,223.88 210.48,225.19 209.49,226.01 C207.45,227.7 207.61,229.08 209.75,228.28 C211.34,227.69 211.36,227.8 210,229.5 C208.63,231.21 208.66,231.31 210.36,230.68 C211.79,230.14 212.08,230.34 211.62,231.55 C211.15,232.77 211.47,232.99 213.01,232.5 C214.15,232.14 215,232.32 215,232.93 C215,233.52 214.55,234 214,234 C212.58,234 212.82,237.18 214.39,239.25 C215.12,240.21 216.38,241 217.19,241 C219.6,241 220.09,242.21 218.23,243.59 C216.7,244.72 216.99,244.95 220.75,245.56 C223.09,245.94 225,246.61 225,247.03 C225,247.46 225.98,247.56 227.17,247.25 C228.89,246.8 229.21,247.02 228.7,248.34 C228.24,249.53 228.6,250 229.95,250 C230.99,250 232.55,250.27 233.42,250.61 C234.46,251.01 235,250.66 235,249.61 C235,248.72 235.68,248 236.5,248 C238.2,248 238.51,249.57 237,250.5 C234.96,251.76 236.1,253 239.25,252.92 C241.04,252.88 241.94,252.62 241.25,252.34 L241.25,252.34 ZM305,212.75 C305,212.34 304.34,212 303.53,212 C302.57,212 302.28,211.42 302.7,210.34 C303.2,209.03 302.89,208.8 301.19,209.24 C300.01,209.55 297.43,209.44 295.45,208.99 C292.47,208.32 291.95,208.43 292.43,209.67 C292.74,210.49 293,211.55 293,212.02 C293,212.49 294.69,213.02 296.75,213.19 C302.69,213.68 305,213.56 305,212.75 L305,212.75 ZM315.63,204.92 C319.1,202.78 319.74,201.58 318,200.5 C317.45,200.16 317,200.51 317,201.28 C317,202.05 315.85,203.2 314.45,203.84 C311.01,205.41 310.87,205.35 311.56,202.64 C312.03,200.76 311.68,200.15 309.87,199.68 C306.84,198.88 306.05,199.83 308.35,201.52 C309.37,202.26 309.9,203.35 309.54,203.93 C307.55,207.16 311.08,207.73 315.63,204.92 L315.63,204.92 ZM322,197.12 C322,195.55 318.11,195.16 316.91,196.6 C315.96,197.75 316.32,198 318.88,198 C320.59,198 322,197.6 322,197.12 L322,197.12 ZM322.54,188.07 C322.18,187.48 321.1,187 320.14,187 C319.18,187 317.86,186.46 317.2,185.8 C316.27,184.87 316,184.93 316,186.09 C316,186.91 317.46,188.03 319.25,188.57 C322.91,189.69 323.49,189.6 322.54,188.07 L322.54,188.07 ZM323.3,181.24 C325.26,180.32 325.31,180.13 323.78,179.51 C321.44,178.56 318.78,181.29 319.72,183.68 C320.34,185.24 320.49,185.27 320.77,183.88 C320.95,182.99 322.09,181.8 323.3,181.24 L323.3,181.24 ZM212.04,179.46 C212.99,178.3 213.03,177.63 212.17,176.77 C210.84,175.44 210.49,175.71 209.56,178.75 C208.76,181.33 210.15,181.73 212.04,179.46 L212.04,179.46 ZM326.98,176.75 C326.95,174.15 325.31,172.73 323.5,173.74 C321.9,174.63 321.95,174.85 324.1,176.36 C326.91,178.33 327,178.34 326.98,176.75 L326.98,176.75 ZM339,162.88 C339,161.5 336.37,161.85 335.08,163.4 C334.19,164.48 334.22,164.91 335.21,165.27 C336.62,165.77 339,164.28 339,162.88 L339,162.88 ZM350.56,192.42 C346.71,188.57 346.56,184.58 350.29,185.34 C350.72,185.43 351.48,184.84 351.98,184.03 C352.75,182.79 353,182.85 353.61,184.42 C354.09,185.68 353.74,186.72 352.54,187.6 C350.31,189.23 351.21,192 353.97,192 C355.09,192 356,192.45 356,193 C356,194.56 352.32,194.17 350.56,192.42 L350.56,192.42 Z" style="fill:#6D6A6A;" />
			</g>
		</g>
	</g>
</svg>