<?xml version="1.0" encoding="UTF-8"?>
<!-- Created with Grafika (https://www.grafika.cc/) -->
<svg xmlns="http://www.w3.org/2000/svg" xmlns:svg="http://www.w3.org/2000/svg" xmlns:xlink="http://www.w3.org/1999/xlink" width="598.04" height="95.2" viewBox="0 0 598.04 95.2" preserveAspectRatio="xMidYMid meet">
	<g transform="matrix(1, 0, 0, 1, 296.5774841308594, 37.5)">
		<g transform="matrix(1, 0, 0, 1, 2.441070556640625, 10.098873138427734)">
			<g transform="matrix(1, 0, 0, 1, -2.441070556640625, -10.098873138427734)">
				<g transform="matrix(1.999664545059204, 0, 0, 1, -400.1318359375, -102.49992370605469)">
					<g transform="matrix(0.4285714328289032, 0, 0, 1, 28.571426391601562, 0)">
						<path transform="matrix(3.5, 0, 0, 2.9842426776885986, 400, 80)" d="M-100,0 L100,-0" style="fill:none;stroke:#000000;stroke-linecap:round;stroke-linejoin:round;stroke-width:0.93;" />
						<path transform="matrix(3.5, 0, 0, 2.9842426776885986, 400, 95)" d="M-89.95,-0.24 L100,-0" style="fill:none;stroke:#000000;stroke-linecap:round;stroke-linejoin:round;stroke-width:0.31;" />
						<path transform="matrix(3.5, 0, 0, 2.9842426776885986, 400, 110)" d="M-94.9,0.02 L100,-0" style="fill:none;stroke:#000000;stroke-linecap:round;stroke-linejoin:round;stroke-width:0.62;" />
						<path transform="matrix(3.5, 0, 0, 2.9842426776885986, 400, 125)" d="M-100,0 L100,-0" style="fill:none;stroke:#000000;stroke-linecap:round;stroke-linejoin:round;stroke-width:0.93;" />
					</g>
					<path transform="matrix(1, 0, 0, 1, -13.193450927734375, 0)" d="M78.17,80 L78.27,125" fill-rule="evenodd" style="fill:none;stroke:#000000;stroke-linecap:round;stroke-linejoin:round;stroke-width:2;" />
					<path transform="matrix(1, 0, 0, 1, 271.78033447265625, 0)" d="M78.17,80 L78.27,125" fill-rule="evenodd" style="fill:none;stroke:#000000;stroke-linecap:round;stroke-linejoin:round;stroke-width:2;" />
				</g>
			</g>
			<path transform="matrix(0.1315334141254425, -0.004593248013406992, 0.10414803773164749, 2.982409715652466, 269.4596252441406, 27.78209686279297)" d="M-89.95,-0.24 L100,-0" style="fill:none;stroke:#000000;stroke-linecap:round;stroke-linejoin:round;stroke-width:0.31;" />
			<line transform="matrix(0.12060870975255966, 0, 0, 0.42560866475105286, -158.7792205810547, -47.598873138427734)" x1="-100" y1="0" x2="100" y2="-0" style="fill:#000000;" />
			<path transform="matrix(0.12060870975255966, 0, 0, 0.42560866475105286, -158.7792205810547, -47.598873138427734)" d="M-100,-2.35 C-100.62,-2.35 -101.22,-2.1 -101.66,-1.66 C-102.1,-1.22 -102.35,-0.62 -102.35,0 C-102.35,0.62 -102.1,1.22 -101.66,1.66 C-101.22,2.1 -100.62,2.35 -100,2.35 L100,2.35 C100.62,2.35 101.22,2.1 101.66,1.66 C102.1,1.22 102.35,0.62 102.35,-0 C102.35,-0.62 102.1,-1.22 101.66,-1.66 C101.22,-2.1 100.62,-2.35 100,-2.35 L-100,-2.35 Z" fill="#000000" fill-rule="evenodd" />
			<ellipse transform="matrix(0.056336067616939545, 0, 0, 0.056336067616939545, -246.93399047851562, 12.445911407470703)" cx="0" cy="0" rx="100" ry="100" style="fill:#B24D28;" />
			<ellipse transform="matrix(0.056336067616939545, 0, 0, 0.056336067616939545, -158.49420166015625, 4.393531799316406)" cx="0" cy="0" rx="100" ry="100" style="fill:#B24D28;" />
			<ellipse transform="matrix(0.056336067616939545, 0, 0, 0.056336067616939545, -159.3497772216797, -40.520263671875)" cx="0" cy="0" rx="98.18" ry="100" style="fill:#B24D28;" />
			<ellipse transform="matrix(0.056336067616939545, 0, 0, 0.056336067616939545, -159.3497772216797, -40.520263671875)" cx="0" cy="0" rx="98.18" ry="100" style="fill:#B24D28;" />
			<ellipse transform="matrix(0.056336067616939545, 0, 0, 0.056336067616939545, -55.65777587890625, -2.297700881958008)" cx="0" cy="0" rx="100" ry="100" style="fill:#B24D28;" />
			<ellipse transform="matrix(0.056336067616939545, 0, 0, 0.056336067616939545, 45.183555603027344, -10.433363914489746)" cx="0" cy="0" rx="100" ry="100" style="fill:#B24D28;" />
			<ellipse transform="matrix(0.056336067616939545, 0, 0, 0.056336067616939545, 133.18508911132812, -16.846752166748047)" cx="0" cy="0" rx="100" ry="100" style="fill:#B24D28;" />
			<ellipse transform="matrix(0.056336067616939545, 0, 0, 0.056336067616939545, 223.0251922607422, -24.328144073486328)" cx="0" cy="0" rx="100" ry="100" style="fill:#B24D28;" />
			<ellipse transform="matrix(0.056336067616939545, 0, 0, 0.056336067616939545, 270.08331298828125, 27.237083435058594)" cx="0" cy="0" rx="100" ry="100" style="fill:#B24D28;" />
			<path transform="matrix(0.05633613467216492, 0, 0, 0.05633605644106865, -203.0755615234375, 11.045114517211914)" d="M116.17,99.16 C111.22,97.09 -95.03,99.71 -107.69,96.84 C-98.11,87.01 12.21,-85.93 13.61,-88.91 C22.15,-79.06 117.22,96.03 116.17,99.16 Z" style="fill:#0077B6;" />
			<path transform="matrix(0.05633613467216492, 0, 0, 0.05633605644106865, -108.05418395996094, 3.847261428833008)" d="M116.17,99.16 C111.22,97.09 -95.03,99.71 -107.69,96.84 C-98.11,87.01 12.21,-85.93 13.61,-88.91 C22.15,-79.06 117.22,96.03 116.17,99.16 Z" style="fill:#0077B6;" />
			<path transform="matrix(0.056336142122745514, 0, 0, 0.05633605644106865, -2.440032958984375, -3.7988295555114746)" d="M116.17,99.16 C111.22,97.09 -95.03,99.71 -107.69,96.84 C-98.11,87.01 6.89,-85.93 8.29,-88.91 C16.82,-79.06 117.22,96.03 116.17,99.16 Z" style="fill:#0077B6;" />
			<path transform="matrix(0.05633613467216492, 0, 0, 0.05633605644106865, 90.51870727539062, -10.532342910766602)" d="M116.17,99.16 C111.22,97.09 -95.03,99.71 -107.69,96.84 C-98.11,87.01 12.21,-85.93 13.61,-88.91 C22.15,-79.06 117.22,96.03 116.17,99.16 Z" style="fill:#0077B6;" />
			<path transform="matrix(0.05633613467216492, 0, 0, 0.05633605644106865, 176.8163604736328, -19.330055236816406)" d="M116.17,99.16 C111.22,97.09 -95.03,99.71 -107.69,96.84 C-98.11,87.01 12.21,-85.93 13.61,-88.91 C22.15,-79.06 117.22,96.03 116.17,99.16 Z" style="fill:#0077B6;" />
			<path transform="matrix(0.05633613467216492, 0, 0, 0.05633605644106865, 268.9569396972656, -26.044248580932617)" d="M116.17,99.16 C111.22,97.09 -95.03,99.71 -107.69,96.84 C-98.11,87.01 12.21,-85.93 13.61,-88.91 C22.15,-79.06 117.22,96.03 116.17,99.16 Z" style="fill:#0077B6;" />
			<path transform="matrix(0.11863694339990616, 0, 0, 0.11863694339990616, -247.07675170898438, 27.973125457763672)" d="M23.79,-2.29 Q23.79,6.4 22.5,13.21 Q21.21,20 18.35,24.76 Q15.49,29.5 10.95,32.01 Q6.41,34.5 -0.01,34.5 Q-7.99,34.5 -13.24,30.11 Q-18.49,25.71 -21.05,17.46 Q-23.59,9.21 -23.59,-2.29 Q-23.59,-13.91 -21.25,-22.09 Q-18.91,-30.29 -13.71,-34.64 Q-8.5,-39.01 -0.01,-39.01 Q8,-39.01 13.3,-34.64 Q18.59,-30.29 21.18,-22.09 Q23.79,-13.91 23.79,-2.29 ZM-14.8,-2.29 Q-14.8,7.5 -13.36,14.02 Q-11.9,20.51 -8.65,23.76 Q-5.4,27.01 -0.01,27.01 Q5.41,27.01 8.66,23.81 Q11.91,20.61 13.39,14.07 Q14.91,7.5 14.91,-2.29 Q14.91,-12.11 13.39,-18.55 Q11.91,-25 8.66,-28.24 Q5.41,-31.49 -0.01,-31.49 Q-5.4,-31.49 -8.65,-28.24 Q-11.9,-25 -13.36,-18.55 Q-14.8,-12.11 -14.8,-2.29 Z" fill="#B24D28" fill-rule="evenodd" />
			<g transform="matrix(0.11863694339990616, 0, 0, 0.11863694339990616, -158.34677124023438, 18.64898109436035)">
				<rect x="-40.81" y="-56.21" width="81.62" height="112.42" fill="#FFFFFF" />
				<g transform="matrix(8.4290771484375, 0, 0, 8.4290771484375, 1334.7171630859375, -157.19369506835938)">
					<path transform="matrix(0.11863694339990616, 0, 0, 0.11863694339990616, -158.34677124023438, 18.64898109436035)" d="M23.19,33.5 L-24,33.5 L-24,26.2 L-5.3,7.3 Q0.09,1.91 3.78,-2.29 Q7.49,-6.49 9.37,-10.54 Q11.28,-14.6 11.28,-19.41 Q11.28,-25.29 7.78,-28.34 Q4.29,-31.39 -1.32,-31.39 Q-6.52,-31.39 -10.48,-29.59 Q-14.41,-27.8 -18.51,-24.61 L-23.22,-30.49 Q-20.41,-32.91 -17.07,-34.79 Q-13.72,-36.69 -9.77,-37.79 Q-5.81,-38.89 -1.32,-38.89 Q5.39,-38.89 10.18,-36.59 Q14.99,-34.3 17.62,-30.05 Q20.28,-25.8 20.28,-19.89 Q20.28,-14.3 17.99,-9.4 Q15.69,-4.49 11.59,0.27 Q7.49,5.01 2,10.4 L-12.92,25.1 L-12.92,25.49 L23.19,25.49 L23.19,33.5 Z" fill="#B24D28" fill-rule="evenodd" />
				</g>
			</g>
			<g transform="matrix(0.11863694339990616, 0, 0, 0.11863694339990616, -159.12338256835938, -25.498905181884766)">
				<rect x="-67.73" y="-56.21" width="135.45" height="112.42" fill="#FFFFFF" />
				<g transform="matrix(8.4290771484375, 0, 0, 8.4290771484375, 1341.2633056640625, 214.93223571777344)">
					<path transform="matrix(0.11863694339990616, 0, 0, 0.11863694339990616, -159.12338256835938, -25.498905181884766)" d="M-2.72,33.5 L-49.92,33.5 L-49.92,26.2 L-31.22,7.3 Q-25.82,1.91 -22.13,-2.29 Q-18.42,-6.49 -16.54,-10.54 Q-14.64,-14.6 -14.64,-19.41 Q-14.64,-25.29 -18.13,-28.34 Q-21.62,-31.39 -27.24,-31.39 Q-32.44,-31.39 -36.39,-29.59 Q-40.32,-27.8 -44.42,-24.61 L-49.14,-30.49 Q-46.33,-32.91 -42.98,-34.79 Q-39.64,-36.69 -35.68,-37.79 Q-31.73,-38.89 -27.24,-38.89 Q-20.52,-38.89 -15.74,-36.59 Q-10.93,-34.3 -8.29,-30.05 Q-5.63,-25.8 -5.63,-19.89 Q-5.63,-14.3 -7.92,-9.4 Q-10.22,-4.49 -14.32,0.27 Q-18.42,5.01 -23.92,10.4 L-38.83,25.1 L-38.83,25.49 L-2.72,25.49 L-2.72,33.5 ZM20.97,33.5 L11.97,33.5 L11.97,-37.91 L51.88,-37.91 L51.88,-30 L20.97,-30 L20.97,-4.71 L49.98,-4.71 L49.98,3.2 L20.97,3.2 L20.97,33.5 Z" fill="#B24D28" fill-rule="evenodd" />
				</g>
			</g>
			<g transform="matrix(0.11863694339990616, 0, 0, 0.11863694339990616, -55.66309356689453, 12.624526977539062)">
				<rect x="-40.81" y="-56.21" width="81.62" height="112.42" fill="#FFFFFF" />
				<g transform="matrix(8.4290771484375, 0, 0, 8.4290771484375, 469.1885070800781, -106.4131088256836)">
					<path transform="matrix(0.11863694339990616, 0, 0, 0.11863694339990616, -55.66309356689453, 12.624526977539062)" d="M26.39,17.29 L15.99,17.29 L15.99,33.5 L7.49,33.5 L7.49,17.29 L-26.71,17.29 L-26.71,9.79 L6.88,-38.3 L15.99,-38.3 L15.99,9.4 L26.39,9.4 L26.39,17.29 ZM7.49,-13.11 Q7.49,-15.69 7.54,-17.84 Q7.59,-19.99 7.69,-21.9 Q7.78,-23.8 7.83,-25.53 Q7.88,-27.29 7.98,-28.9 L7.59,-28.9 Q6.78,-27 5.59,-24.8 Q4.39,-22.6 3.29,-21.09 L-18.12,9.4 L7.49,9.4 L7.49,-13.11 Z" fill="#B24D28" fill-rule="evenodd" />
				</g>
			</g>
			<g transform="matrix(0.11863694339990616, 0, 0, 0.11863694339990616, 44.716041564941406, 4.457391738891602)">
				<rect x="-40.81" y="-56.21" width="81.62" height="112.42" fill="#FFFFFF" />
				<g transform="matrix(8.4290771484375, 0, 0, 8.4290771484375, -376.91497802734375, -37.57169723510742)">
					<path transform="matrix(0.11863694339990616, 0, 0, 0.11863694339990616, 44.716041564941406, 4.457391738891602)" d="M-23.32,3.01 Q-23.32,-3.19 -22.46,-9.2 Q-21.61,-15.21 -19.51,-20.55 Q-17.41,-25.9 -13.72,-30.05 Q-10.01,-34.2 -4.37,-36.54 Q1.29,-38.89 9.4,-38.89 Q11.5,-38.89 14.03,-38.69 Q16.6,-38.5 18.18,-38.01 L18.18,-30.49 Q16.38,-31.1 14.13,-31.39 Q11.89,-31.71 9.59,-31.71 Q2.68,-31.71 -1.93,-29.39 Q-6.52,-27.1 -9.18,-23.09 Q-11.82,-19.09 -13.02,-13.89 Q-14.21,-8.71 -14.51,-2.8 L-13.92,-2.8 Q-12.41,-5.2 -10.11,-7.1 Q-7.82,-9 -4.57,-10.1 Q-1.32,-11.2 3,-11.2 Q9.18,-11.2 13.81,-8.64 Q18.48,-6.1 21.07,-1.24 Q23.68,3.59 23.68,10.5 Q23.68,17.9 20.87,23.29 Q18.09,28.69 13.03,31.6 Q7.98,34.5 1,34.5 Q-4.11,34.5 -8.52,32.6 Q-12.92,30.69 -16.26,26.81 Q-19.61,22.9 -21.46,16.95 Q-23.32,10.99 -23.32,3.01 ZM0.9,27.1 Q7.2,27.1 11.08,23.05 Q14.99,19 14.99,10.5 Q14.99,3.69 11.52,-0.29 Q8.08,-4.29 1.19,-4.29 Q-3.52,-4.29 -7.01,-2.34 Q-10.5,-0.41 -12.45,2.59 Q-14.41,5.59 -14.41,8.79 Q-14.41,12.09 -13.46,15.31 Q-12.5,18.51 -10.58,21.22 Q-8.62,23.91 -5.77,25.52 Q-2.91,27.1 0.9,27.1 Z" fill="#B24D28" fill-rule="evenodd" />
				</g>
			</g>
			<g transform="matrix(0.11863694339990616, 0, 0, 0.11863694339990616, 132.79440307617188, -1.604135513305664)">
				<rect x="-40.81" y="-56.21" width="81.62" height="112.42" fill="#FFFFFF" />
				<g transform="matrix(8.4290771484375, 0, 0, 8.4290771484375, -1119.334228515625, 13.521382331848145)">
					<path transform="matrix(0.11863694339990616, 0, 0, 0.11863694339990616, 132.79440307617188, -1.604135513305664)" d="M-0.32,-38.89 Q5.98,-38.89 10.79,-36.93 Q15.6,-35.01 18.33,-31.2 Q21.09,-27.39 21.09,-21.8 Q21.09,-17.5 19.23,-14.3 Q17.38,-11.1 14.28,-8.64 Q11.18,-6.2 7.49,-4.29 Q11.89,-2.19 15.47,0.47 Q19.09,3.1 21.24,6.62 Q23.38,10.11 23.38,14.99 Q23.38,21 20.48,25.35 Q17.6,29.69 12.33,32.11 Q7.08,34.5 -0,34.5 Q-7.72,34.5 -13.07,32.21 Q-18.41,29.91 -21.17,25.66 Q-23.91,21.39 -23.91,15.31 Q-23.91,10.4 -21.85,6.82 Q-19.8,3.2 -16.41,0.61 Q-13.02,-2 -9.11,-3.8 Q-12.6,-5.81 -15.46,-8.35 Q-18.31,-10.91 -19.97,-14.21 Q-21.61,-17.5 -21.61,-21.9 Q-21.61,-27.39 -18.83,-31.15 Q-16.02,-34.91 -11.21,-36.89 Q-6.4,-38.89 -0.32,-38.89 ZM-15.31,15.41 Q-15.31,20.61 -11.62,24.05 Q-7.91,27.49 -0.22,27.49 Q7.08,27.49 10.93,24.05 Q14.79,20.61 14.79,15.09 Q14.79,11.6 12.94,8.96 Q11.08,6.3 7.74,4.2 Q4.39,2.1 -0.22,0.39 L-1.81,-0.19 Q-6.2,1.69 -9.21,3.91 Q-12.21,6.11 -13.77,8.92 Q-15.31,11.7 -15.31,15.41 ZM-0.42,-31.81 Q-5.91,-31.81 -9.48,-29.15 Q-13.02,-26.51 -13.02,-21.5 Q-13.02,-17.79 -11.26,-15.28 Q-9.5,-12.79 -6.52,-11.03 Q-3.52,-9.3 0.09,-7.71 Q3.59,-9.2 6.32,-10.98 Q9.08,-12.79 10.74,-15.33 Q12.4,-17.89 12.4,-21.5 Q12.4,-26.51 8.88,-29.15 Q5.39,-31.81 -0.42,-31.81 Z" fill="#B24D28" fill-rule="evenodd" />
				</g>
			</g>
			<g transform="matrix(0.11863694339990616, 0, 0, 0.11863694339990616, 223.03128051757812, -10.2875337600708)">
				<rect x="-59.43" y="-47.36" width="118.85" height="94.73" fill="#FFFFFF" />
				<g transform="matrix(8.4290771484375, 0, 0, 8.4290771484375, -1879.9478759765625, 86.71441650390625)">
					<path transform="matrix(0.11863694339990616, 0, 0, 0.11863694339990616, 223.03128051757812, -10.2875337600708)" d="M-21.93,33.5 L-30.52,33.5 L-30.52,-16.4 Q-30.52,-19.31 -30.47,-21.31 Q-30.42,-23.31 -30.33,-25.04 Q-30.23,-26.8 -30.13,-28.71 Q-31.72,-27.1 -33.04,-26 Q-34.33,-24.9 -36.33,-23.19 L-43.93,-16.99 L-48.52,-22.9 L-29.23,-37.91 L-21.93,-37.91 L-21.93,33.5 ZM51.87,-2.29 Q51.87,6.4 50.57,13.21 Q49.28,20 46.42,24.76 Q43.57,29.5 39.03,32.01 Q34.49,34.5 28.06,34.5 Q20.08,34.5 14.83,30.11 Q9.58,25.71 7.02,17.46 Q4.48,9.21 4.48,-2.29 Q4.48,-13.91 6.82,-22.09 Q9.17,-30.29 14.37,-34.64 Q19.57,-39.01 28.06,-39.01 Q36.07,-39.01 41.37,-34.64 Q46.67,-30.29 49.26,-22.09 Q51.87,-13.91 51.87,-2.29 ZM13.27,-2.29 Q13.27,7.5 14.71,14.02 Q16.18,20.51 19.42,23.76 Q22.67,27.01 28.06,27.01 Q33.48,27.01 36.73,23.81 Q39.98,20.61 41.47,14.07 Q42.98,7.5 42.98,-2.29 Q42.98,-12.11 41.47,-18.55 Q39.98,-25 36.73,-28.24 Q33.48,-31.49 28.06,-31.49 Q22.67,-31.49 19.42,-28.24 Q16.18,-25 14.71,-18.55 Q13.27,-12.11 13.27,-2.29 Z" fill="#B24D28" fill-rule="evenodd" />
				</g>
			</g>
			<path transform="matrix(0.11863694339990616, 0, 0, 0.11863694339990616, 269.55242919921875, 41.97975158691406)" d="M-36.3,-38.89 Q-30.01,-38.89 -25.2,-36.93 Q-20.39,-35.01 -17.65,-31.2 Q-14.89,-27.39 -14.89,-21.8 Q-14.89,-17.5 -16.75,-14.3 Q-18.6,-11.1 -21.7,-8.64 Q-24.81,-6.2 -28.49,-4.29 Q-24.1,-2.19 -20.51,0.47 Q-16.9,3.1 -14.75,6.62 Q-12.6,10.11 -12.6,14.99 Q-12.6,21 -15.5,25.35 Q-18.38,29.69 -23.66,32.11 Q-28.91,34.5 -35.99,34.5 Q-43.7,34.5 -49.05,32.21 Q-54.4,29.91 -57.15,25.66 Q-59.89,21.39 -59.89,15.31 Q-59.89,10.4 -57.84,6.82 Q-55.79,3.2 -52.39,0.61 Q-49,-2 -45.09,-3.8 Q-48.58,-5.81 -51.44,-8.35 Q-54.3,-10.91 -55.96,-14.21 Q-57.59,-17.5 -57.59,-21.9 Q-57.59,-27.39 -54.81,-31.15 Q-52,-34.91 -47.19,-36.89 Q-42.38,-38.89 -36.3,-38.89 ZM-51.29,15.41 Q-51.29,20.61 -47.61,24.05 Q-43.9,27.49 -36.21,27.49 Q-28.91,27.49 -25.05,24.05 Q-21.19,20.61 -21.19,15.09 Q-21.19,11.6 -23.05,8.96 Q-24.9,6.3 -28.25,4.2 Q-31.59,2.1 -36.21,0.39 L-37.79,-0.19 Q-42.19,1.69 -45.19,3.91 Q-48.19,6.11 -49.76,8.92 Q-51.29,11.7 -51.29,15.41 ZM-36.4,-31.81 Q-41.9,-31.81 -45.46,-29.15 Q-49,-26.51 -49,-21.5 Q-49,-17.79 -47.24,-15.28 Q-45.48,-12.79 -42.51,-11.03 Q-39.5,-9.3 -35.89,-7.71 Q-32.4,-9.2 -29.66,-10.98 Q-26.9,-12.79 -25.24,-15.33 Q-23.58,-17.89 -23.58,-21.5 Q-23.58,-26.51 -27.1,-29.15 Q-30.59,-31.81 -36.4,-31.81 ZM59.1,-2.9 Q59.1,9.11 54.66,17.22 Q50.21,25.3 41.91,29.4 Q33.61,33.5 21.79,33.5 L1.9,33.5 L1.9,-37.91 L23.89,-37.91 Q34.71,-37.91 42.6,-33.91 Q50.51,-29.9 54.8,-22.14 Q59.1,-14.4 59.1,-2.9 ZM49.6,-2.61 Q49.6,-12.11 46.45,-18.18 Q43.3,-24.29 37.25,-27.24 Q31.19,-30.2 22.6,-30.2 L10.91,-30.2 L10.91,25.81 L20.6,25.81 Q35.1,25.81 42.35,18.66 Q49.6,11.5 49.6,-2.61 Z" fill="#B24D28" fill-rule="evenodd" />
			<g transform="matrix(0.11863694339990616, 0, 0, 0.11863694339990616, -107.12725830078125, 18.648977279663086)">
				<rect x="-40.81" y="-56.21" width="81.62" height="112.42" fill="#FFFFFF" />
				<g transform="matrix(8.4290771484375, 0, 0, 8.4290771484375, 902.9839477539062, -157.19366455078125)">
					<path transform="matrix(0.11863694339990616, 0, 0, 0.11863694339990616, -107.12725830078125, 18.648977279663086)" d="M20.48,-21.21 Q20.48,-16.4 18.67,-12.89 Q16.89,-9.4 13.52,-7.2 Q10.18,-5 5.68,-4.1 L5.68,-3.71 Q14.28,-2.71 18.48,1.71 Q22.68,6.11 22.68,13.21 Q22.68,19.39 19.77,24.25 Q16.89,29.11 10.84,31.82 Q4.78,34.5 -4.72,34.5 Q-10.31,34.5 -15.12,33.65 Q-19.9,32.79 -24.32,30.59 L-24.32,22.39 Q-19.8,24.59 -14.6,25.86 Q-9.4,27.1 -4.62,27.1 Q4.98,27.1 9.22,23.37 Q13.5,19.61 13.5,12.99 Q13.5,8.5 11.13,5.77 Q8.79,3.01 4.27,1.71 Q-0.22,0.39 -6.52,0.39 L-13.41,0.39 L-13.41,-7.1 L-6.4,-7.1 Q-0.52,-7.1 3.44,-8.79 Q7.39,-10.49 9.44,-13.55 Q11.5,-16.6 11.5,-20.6 Q11.5,-25.8 7.98,-28.63 Q4.49,-31.49 -1.52,-31.49 Q-5.3,-31.49 -8.4,-30.73 Q-11.5,-30 -14.16,-28.63 Q-16.8,-27.29 -19.51,-25.51 L-23.91,-31.49 Q-20.12,-34.49 -14.48,-36.69 Q-8.82,-38.89 -1.62,-38.89 Q9.59,-38.89 15.04,-33.88 Q20.48,-28.9 20.48,-21.21 Z" fill="#0077B6" fill-rule="evenodd" />
				</g>
			</g>
			<g transform="matrix(0.11863694339990616, 0, 0, 0.11863694339990616, -2.3719100952148438, 11.56026840209961)">
				<rect x="-40.81" y="-56.21" width="81.62" height="112.42" fill="#FFFFFF" />
				<g transform="matrix(8.4290771484375, 0, 0, 8.4290771484375, 19.993013381958008, -97.44239044189453)">
					<path transform="matrix(0.11863694339990616, 0, 0, 0.11863694339990616, -2.3719100952148438, 11.56026840209961)" d="M-1.32,-10.3 Q5.98,-10.3 11.37,-7.78 Q16.79,-5.29 19.72,-0.63 Q22.68,4.01 22.68,10.7 Q22.68,18.09 19.48,23.44 Q16.28,28.79 10.32,31.64 Q4.39,34.5 -4.01,34.5 Q-9.5,34.5 -14.36,33.5 Q-19.22,32.5 -22.51,30.59 L-22.51,22.29 Q-18.9,24.49 -13.77,25.76 Q-8.62,27.01 -3.91,27.01 Q1.39,27.01 5.34,25.37 Q9.3,23.71 11.5,20.27 Q13.69,16.8 13.69,11.6 Q13.69,4.59 9.4,0.86 Q5.1,-2.9 -4.2,-2.9 Q-7.01,-2.9 -10.62,-2.39 Q-14.21,-1.9 -16.41,-1.41 L-20.8,-4.2 L-18.12,-37.91 L17.7,-37.91 L17.7,-29.9 L-10.62,-29.9 L-12.31,-9.2 Q-10.62,-9.49 -7.72,-9.88 Q-4.81,-10.3 -1.32,-10.3 Z" fill="#0077B6" fill-rule="evenodd" />
				</g>
			</g>
			<g transform="matrix(0.11863694339990616, 0, 0, 0.11863694339990616, 90.56896209716797, 4.6703996658325195)">
				<rect x="-40.81" y="-51.8" width="81.62" height="103.59" fill="#FFFFFF" />
				<g transform="matrix(8.4290771484375, 0, 0, 8.4290771484375, -763.4127807617188, -39.36716079711914)">
					<path transform="matrix(0.11863694339990616, 0, 0, 0.11863694339990616, 90.56896209716797, 4.6703996658325195)" d="M-15.21,33.5 L14.08,-29.9 L-24.42,-29.9 L-24.42,-37.91 L23.48,-37.91 L23.48,-31.1 L-5.52,33.5 L-15.21,33.5 Z" fill="#0077B6" fill-rule="evenodd" />
				</g>
			</g>
			<g transform="matrix(0.11863694339990616, 0, 0, 0.11863694339990616, 176.4301300048828, -5.107381820678711)">
				<rect x="-40.81" y="-51.8" width="81.62" height="103.59" fill="#FFFFFF" />
				<g transform="matrix(8.4290771484375, 0, 0, 8.4290771484375, -1487.1431884765625, 43.050514221191406)">
					<path transform="matrix(0.11863694339990616, 0, 0, 0.11863694339990616, 176.4301300048828, -5.107381820678711)" d="M23.19,-7.39 Q23.19,-1.29 22.34,4.76 Q21.48,10.79 19.38,16.14 Q17.28,21.49 13.57,25.64 Q9.88,29.79 4.17,32.16 Q-1.52,34.5 -9.62,34.5 Q-11.6,34.5 -14.26,34.23 Q-16.92,33.99 -18.61,33.5 L-18.61,26 Q-16.8,26.59 -14.41,26.96 Q-12.02,27.3 -9.82,27.3 Q-2.81,27.3 1.73,25 Q6.3,22.71 8.98,18.75 Q11.69,14.8 12.89,9.55 Q14.08,4.3 14.28,-1.51 L13.69,-1.51 Q12.18,0.81 9.88,2.71 Q7.59,4.59 4.34,5.69 Q1.09,6.79 -3.32,6.79 Q-9.4,6.79 -14.07,4.25 Q-18.7,1.69 -21.27,-3.1 Q-23.81,-7.91 -23.81,-14.79 Q-23.81,-22.31 -20.98,-27.71 Q-18.12,-33.1 -13.02,-35.98 Q-7.91,-38.89 -1,-38.89 Q4.1,-38.89 8.49,-36.93 Q12.89,-35.01 16.18,-31.1 Q19.48,-27.19 21.33,-21.29 Q23.19,-15.4 23.19,-7.39 ZM-1,-31.49 Q-7.21,-31.49 -11.16,-27.39 Q-15.12,-23.31 -15.12,-14.89 Q-15.12,-8 -11.77,-4.05 Q-8.4,-0.09 -1.42,-0.09 Q3.39,-0.09 6.88,-2.05 Q10.4,-4 12.33,-7 Q14.28,-10.01 14.28,-13.2 Q14.28,-16.4 13.33,-19.65 Q12.4,-22.9 10.49,-25.58 Q8.59,-28.29 5.68,-29.88 Q2.78,-31.49 -1,-31.49 Z" fill="#0077B6" fill-rule="evenodd" />
				</g>
			</g>
			<g transform="matrix(0.11863694339990616, 0, 0, 0.11863694339990616, 269.47833251953125, -10.820327758789062)">
				<rect x="-60.5" y="-44.28" width="121" height="88.56" fill="#FFFFFF" />
				<g transform="matrix(8.4290771484375, 0, 0, 8.4290771484375, -2271.45361328125, 91.20537567138672)">
					<path transform="matrix(0.11863694339990616, 0, 0, 0.11863694339990616, 269.47833251953125, -10.820327758789062)" d="M-21,33.5 L-29.6,33.5 L-29.6,-16.4 Q-29.6,-19.31 -29.55,-21.31 Q-29.5,-23.31 -29.4,-25.04 Q-29.3,-26.8 -29.21,-28.71 Q-30.79,-27.1 -32.11,-26 Q-33.4,-24.9 -35.41,-23.19 L-43,-16.99 L-47.59,-22.9 L-28.3,-37.91 L-21,-37.91 L-21,33.5 ZM36,33.5 L27.4,33.5 L27.4,-16.4 Q27.4,-19.31 27.45,-21.31 Q27.5,-23.31 27.6,-25.04 Q27.7,-26.8 27.79,-28.71 Q26.21,-27.1 24.89,-26 Q23.6,-24.9 21.59,-23.19 L14,-16.99 L9.41,-22.9 L28.7,-37.91 L36,-37.91 L36,33.5 Z" fill="#0077B6" fill-rule="evenodd" />
				</g>
			</g>
			<path transform="matrix(0.11863694339990616, 0, 0, 0.11863694339990616, -202.6422882080078, 27.118614196777344)" d="M7,33.5 L-1.6,33.5 L-1.6,-16.4 Q-1.6,-19.31 -1.55,-21.31 Q-1.5,-23.31 -1.4,-25.04 Q-1.3,-26.8 -1.21,-28.71 Q-2.79,-27.1 -4.11,-26 Q-5.4,-24.9 -7.41,-23.19 L-15,-16.99 L-19.59,-22.9 L-0.3,-37.91 L7,-37.91 L7,33.5 Z" fill="#0077B6" fill-rule="evenodd" />
		</g>
	</g>
</svg>