<?xml version="1.0" encoding="UTF-8"?>
<!-- Created with Grafika (https://www.grafika.cc/) -->
<svg xmlns="http://www.w3.org/2000/svg" xmlns:svg="http://www.w3.org/2000/svg" xmlns:xlink="http://www.w3.org/1999/xlink" width="302.61" height="96.62" viewBox="0 0 302.61 96.62" preserveAspectRatio="xMidYMid meet">
	<g transform="matrix(1, 0, 0, 1, 9.19415283203125, 21.044395446777344)">
		<g transform="matrix(1, 0, 0, 1, 142.10995483398438, 27.26431655883789)">
			<g transform="matrix(0.1639469712972641, 0, 0, 0.17955663800239563, -155.49624633789062, -60.558719635009766)">
				<path d="M112.67,285.33 C112.3,284.97 72.42,271.99 71.73,269.5 C71.11,267.3 67.27,255 66.47,255 C65.91,255 64.73,253.14 62.87,250.16 C61.45,247.88 72.45,220.3 76.35,211.5 C82.84,196.85 107.88,200.69 125.04,209.47 C126.08,210.01 133.72,225.47 134.53,222.91 C135.2,220.81 138,208.47 138,204.57 C138,200.29 146.2,150.57 144.04,149.02 C137.02,144.03 145.23,135.18 148.22,134.55 C156.7,132.77 151.55,109.35 147.59,99.87 C144.83,93.25 167,99.4 167,99.88 C167,100.53 173.62,104.23 183.57,104.38 C189.01,104.47 195.36,104.96 196.15,105.75 C196.91,106.51 218.69,110.36 221.86,123.49 C222.28,125.23 226.47,129 224.02,129 C221.98,129 195.75,128.4 195.11,127.2 C194.59,126.23 172.55,119.25 165.81,115.9 C163.8,114.9 180.45,145.39 181.02,146.17 C181.31,146.56 197.66,156.05 198.33,156.8 C199.33,157.91 211.21,162.09 210.74,163.87 C210.11,166.31 191.53,164.31 190.16,164.67 C188.81,165.02 163.44,153.37 164.54,156.25 C164.91,157.21 161.73,176.46 163.52,176.57 C165.19,176.66 183,184.82 183,184.5 C183,183.87 199.7,191.09 200.83,196.04 C201.01,196.83 188.54,199.61 188.35,199.75 C187.14,200.62 178.55,195 178,195 C176.9,195 153.84,193.76 154.14,195.81 C154.54,198.58 153,202.54 153,203.33 C153,204.13 149.12,215 150.39,215 C153.01,215 149,225.69 149,227.42 C149,228.19 138.68,237.63 139.61,240 C142.18,246.55 135.98,255.9 134.94,256.54 C133.06,257.7 126.32,272.73 125.66,274.44 C125.33,275.3 115.58,281.2 116.37,282.08 C117.02,282.81 113.36,286.03 112.67,285.33 ZM101.25,224.63 C104.07,222.21 95,225.67 95,226.58 C95,227.88 98.89,226.67 101.25,224.63 Z" style="fill:#B24D28;" />
			</g>
			<g transform="matrix(1, 0, 0, 1, 1.18402099609375, -30.620866775512695)">
				<g transform="matrix(1, 0, 0, 1, -0.0000019073485191256623, 0)">
					<g transform="matrix(0.18840642273426056, 0, 0, 0.1941092610359192, -24.566650390625, -19.572664260864258)">
						<path d="M119.98,190.25 C119.93,187.7 115.23,189.96 110.76,187.59 C108.18,186.21 101,186.1 101,184.88 C101,184.4 90.95,176.48 88.38,170.93 C85.27,164.23 92.79,140.63 93.51,137.83 C94.08,135.54 109.05,125.4 109.92,124.66 C110.79,123.93 119.18,120.1 120,119.41 C127.1,113.45 146.02,122.15 145.42,123.13 C144.56,124.52 154.5,123.42 155.65,112.96 C159.63,76.68 161.67,57.22 160.58,53.43 C159.8,50.72 157.3,31.07 154.69,27.36 C153.1,25.1 154,20.96 154,16.92 C154,11.7 171.87,31.67 170.44,37.38 C170.13,38.61 172.98,49.29 172.99,50.25 C172.99,51.21 174.84,53.32 174.43,55.51 C174.05,57.52 175.57,75.36 174.16,81.12 C173.62,83.32 174.74,88.64 173.69,89.82 C172.68,90.97 171.6,107.02 170.12,109.51 C168.44,112.37 168.81,132 165.45,133.59 C160.83,135.78 164,137.55 164,137 C164,136.45 166.2,139.8 163.89,140.53 C161.76,141.21 164.25,145.16 163.25,146.86 C162.56,148.02 160.84,154.25 159.43,155.66 C157.52,157.57 157.28,170.7 153.25,171.38 C148.42,172.21 146,177.84 146,179.54 C146,184.35 134.32,181.06 133.67,181.29 C133.03,181.51 128.4,190.03 126.34,189.3 C125.7,189.08 120.01,191.4 119.98,190.25 L119.98,190.25 L119.98,190.25 Z" style="fill:#B24D28;" />
					</g>
				</g>
			</g>
			<g transform="matrix(1, 0, 0, 1, -89.14601135253906, -27.564523696899414)">
				<g transform="matrix(0.14393466711044312, 0, 0, 0.17348521947860718, -21.03342056274414, -32.145164489746094)">
					<path d="M98,284.24 C80.39,278.28 66.27,258 65.82,258 C65.37,258 64.66,250 64.25,250 C60.61,250 65.71,237.88 72.5,226 C73.91,223.54 88.71,210.28 92.1,207.25 C95.93,203.83 106.89,203.87 109.84,202.21 C113.87,199.95 121.89,201.54 124.23,201.28 C127.36,200.93 141.27,206.27 142.59,202.41 C143.19,200.66 149.81,188.41 149.14,187.74 C148.46,187.06 151.02,181.07 150.86,179.81 C150.7,178.54 152.54,170.94 152.94,166.17 C153.33,161.4 156.03,150.9 155.61,147.34 C155.24,144.21 156.86,141.21 156.85,140.25 C156.82,138.15 158.45,131 157.64,131 C156.46,131 160.48,121.88 159.86,121.26 C158.71,120.11 161.06,101.72 159.62,100.75 C158.84,100.23 161.05,98 160.5,97.95 C151.38,97.26 169,82.82 169,84.88 C169,85.36 180.6,87.28 181.17,88.09 C181.83,89.04 197.18,87.31 203.75,88.5 C205.54,88.82 213.3,87.23 214.05,88.23 C216.13,91.02 227,106.38 227,108.05 C227,110.01 230.42,112.98 228.84,116.46 C227.98,118.35 221.82,118.99 221.07,119.46 C220.08,120.07 220.75,117.85 218.91,118.41 C214.45,119.74 209.57,113 204.99,113 C203.41,113 199.32,110.99 197.26,110.73 C193.12,110.19 178.69,110.58 178.74,115.08 C178.76,117.51 176.3,124 177.63,125.11 C179.03,126.27 176.27,129.05 176.93,129.46 C177.63,129.89 174.89,140 178.27,140 C181.35,140 189.59,145.99 192.75,147.49 C199.07,150.5 202.66,152 203.51,152 C204.42,152 207.51,158.93 209.38,160.24 C210.52,161.04 212.88,163.73 216.09,166.93 C218,168.84 217,172.91 217,173.91 C217,174.41 222.39,174.94 221.37,178.75 C220.24,182.97 192.11,161 189.3,161 C188,161 179,155.6 179,157 C179,158.1 176,158.09 176,157.07 C176,155.58 171.22,155.11 171.5,156.31 C171.89,157.97 163.99,166.5 167.07,167.31 C168.21,167.61 167.13,171.08 166.59,178 C165.82,187.92 161.97,203.37 159.36,205.52 C158.81,207.08 154.38,211.6 155.4,214.76 C155.19,227.13 138.39,270.52 122.17,278.05 C114.83,281.46 109.3,283.63 108.21,283.34 C107.16,283.07 103,285.95 102.82,285.88 C102.64,285.81 100.48,285.07 98,284.24 L98,284.24 Z" style="fill:#B24D28;" />
				</g>
			</g>
			<g transform="matrix(1, 0, 0, 1, -42.247657775878906, -28.011341094970703)">
				<g transform="matrix(0.1485576629638672, 0, 0, 0.16770194470882416, -24.388458251953125, -29.979848861694336)">
					<path d="M131,282.36 C127.15,281.02 105.49,272.37 102.55,269.08 C92.56,257.87 82.73,245 86.03,245 C86.56,245 89.52,232.96 90.15,231.58 C91.93,227.66 104.16,209.82 109.74,208.52 C114.24,207.48 142.25,195.59 147.24,198 C156.33,202.39 162.39,196.56 165.44,180.5 C167.08,171.88 162.75,137.87 163.75,136.86 C165.54,135.06 159.99,103.81 160.34,102.04 C160.67,100.41 157.56,90.28 158.39,90.6 C159.71,91.1 164.87,74.48 165.65,75.12 C166.65,75.95 180.38,82.58 179.59,83.86 C179.19,84.5 198.39,95.07 198.83,96.17 C199.02,96.63 225,104.47 225,105.06 C225,105.64 237,109.67 237,110.59 C237,111.35 243.75,118.45 242.85,120.44 C241.95,122.41 236.6,122.8 235.23,124.17 C234.71,124.69 207.72,117.19 205.29,116.51 C204.08,116.17 177,104.28 177,107.94 C177,109.56 179.73,126.05 179.05,126.47 C177.42,127.48 181.98,151.66 181.99,154.31 C182,160.21 180.17,165.01 182.44,167.08 C185.8,170.14 182.93,195.83 183.23,197.45 C183.77,200.26 174.48,214.09 174.75,215.47 C175.09,217.27 168.07,241.4 168.39,241.72 C168.72,242.05 163.05,255.65 163.26,256.28 C163.47,256.92 151.34,271.73 152.76,272.62 C153.84,273.3 143.89,277.94 144.37,277.96 C146.61,278.07 132.93,283.02 131,282.36 L131,282.36 ZM151.95,248.72 C152.51,247.1 143,251.02 143,253.88 C143,257.06 150.56,252.69 151.95,248.72 L151.95,248.72 ZM167.37,252.62 C168.34,249.85 166.7,254.51 167.37,252.62M167.37,252.62 L167.37,252.62 Z" style="fill:#B24D28;" />
				</g>
			</g>
			<ellipse transform="matrix(0.07601018249988556, 0, 0, 0.07601018249988556, 42.39927673339844, -20.16320037841797)" cx="0" cy="0" rx="100" ry="100" style="fill:#B24D28;" />
			<g transform="matrix(0.9914725422859192, 0, 0, 0.9914725422859192, 86.30804443359375, -29.031482696533203)">
				<path transform="matrix(0.12296296656131744, 0, 0, 0.11726715415716171, -33.550689697265625, -22.4093017578125)" d="M217.5,291 C215.11,289.14 210.4,273.03 214.25,272.98 C215.09,272.97 212.7,270.87 213.94,270.08 C215.06,269.35 213.77,260.58 216.33,259.45 C218.03,258.71 217.99,245.56 217.58,239.8 C217.38,236.93 215.56,229.95 215.64,225 C215.78,216.45 211.87,215.67 213.25,215.31 C214.48,214.99 213.52,201.2 213.31,197.16 C213.21,195.15 210.76,179.93 210.65,178 C210.53,176.08 209.34,170.81 209.42,168.75 C209.5,166.69 208.38,164.16 208.93,163.13 C209.48,162.1 208.63,151.22 208.41,140.32 C208.02,120.58 203,116.08 203,115.66 C203,115.25 198.57,109.68 198.8,108.63 C199.04,107.46 197,108.98 197,110.03 C197,111.34 194.07,109.96 194.53,107.87 C195.02,105.63 192.47,107 192.76,108.55 C193.3,111.32 189,106.13 189,103.07 C189,100.28 187,97.1 186.71,96 C186.42,94.9 187.57,91.69 187.66,88.87 C187.75,85.93 190.11,81.84 189.17,80.7 C188.51,79.91 185.24,67 183.41,67 C182.63,67 181.66,64.02 181.25,63.83 C178.43,62.58 175.66,43.28 175.35,42.47 C173.88,38.63 191.4,54.45 197.59,52.51 C199.88,51.79 212.36,64 214.84,64 C216.02,64 219.65,73 220.18,73 C220.7,73 220.37,77.57 221.36,78.32 C223.2,79.73 224.35,99.77 226.34,103.91 C227.24,105.79 224.71,109.31 226.86,111.15 C229.4,113.32 235.61,145.84 230.88,155.54 C229.74,157.88 234.01,164.16 233.58,166.42 C232.84,170.39 233.96,173.47 231.75,174.48 C228.5,175.97 235,175.19 235,176.42 C235,177.29 233,179.29 233,180.88 C233,182.46 230.01,187.65 230.03,189.37 C230.06,192.34 233.07,188.08 233.33,197.24 C233.45,201.18 231.16,204.45 231.51,205.01 C231.85,205.57 236.34,207.19 237.92,210.25 C238.7,211.76 242,213.93 242,215.07 C242,216.73 237.74,216 238.45,219.64 C239.27,223.89 240.23,228.34 240.7,228.82 C241.42,229.55 244.49,242.86 249.02,245.9M249.02,245.9 C252.94,249.8 266.43,231.5 268.81,229 C286.04,206.83 336.05,219.15 347.98,227.76 C351.47,228.9 364.2,243.92 363.53,243.79 C365.03,244.29 369.37,256.66 369.16,256.75 C370.94,259.08 369.76,276.86 370.44,276.25 C367.45,285.86 358.88,295.45 356,301.11 C356,301.86 351,303.47 351,304.04 C351,304.61 348.12,312.62 348.4,312.16 C349.25,310.78 337.63,314.53 338.3,311.94 C338.75,310.22 344.33,312.5 342.45,315.75 C340.38,319.33 338.19,322.14 336.25,323.56 C332.22,326.5 325.33,324.5 328.5,321 C330.65,318.62 318.88,324.38 318.53,324.96 C318.17,325.53 325.64,323.76 324.99,324.41 C323.9,325.5 316,331.96 316,329.07 C316,326 307.33,334.79 304.68,334.78 C302.03,334.76 293.22,341.75 292.82,338.25 C292.45,335.07 286.53,338.88 285.07,340.25 C284.34,340.94 282.58,336.86 282.07,336.54 C281.56,336.23 266.61,333.17 266.87,330.64 C267.09,328.6 259.52,331.46 259.77,330.03 C259.91,329.19 249.94,329.02 249.44,326.72 C248.74,323.53 243,319.6 243,319.11 C243,317.99 234.96,310.76 235.97,309.53 C237.36,307.86 218.6,291.86 217.5,291" fill-rule="evenodd" style="fill:#B24D28;" />
			</g>
			<g transform="matrix(0.08969621360301971, 0, 0, 0.08969621360301971, 136.45309448242188, -28.69403839111328)">
				<g transform="matrix(1, 0, 0, 1, 38.74525451660156, -57.32257080078125)">
					<g transform="matrix(1.4330097436904907, 0, 0, 1.4330097436904907, -426.32037353515625, -290.1844177246094)">
						<path d="M264.63,321.1 C264.22,320.58 260.42,265.3 259.49,263.35 C257.89,259.96 256.49,243.35 255.44,242.58 C254.45,241.86 253.85,215.34 251.23,213.19 C247.42,210.06 249.57,192.53 248,193.5 C246.34,194.53 243.27,175.69 242.39,175.2 C241.05,174.45 237.73,160.64 234.73,163 C231.93,165.2 221.74,174.79 219.15,177.52 C217.85,178.88 207.98,185.96 207.68,187.11 C207.23,188.85 203,190.45 203,191 C203,191.55 188,199 188,199.65 C188,200.11 160.54,201.31 159.25,201.64 C154.25,202.95 154.16,167.33 156.08,162.29 C157.11,159.58 170.01,156.37 170.02,155.25 C170.03,153.78 183,149.57 183,148.14 C183,147.51 218.99,111.5 219.01,108.68 C219.01,107.38 232.88,102 234.19,102 C236.85,102 253.19,132.83 249.26,132.31 C247.15,132.03 253.61,139.54 255.75,142.26 C256.29,142.94 255.42,158.16 258.08,159.82 C259.73,160.85 263.24,174.17 264.14,176.33 C265.23,178.97 265.76,186.18 266.85,189.12 C267.21,190.09 268.01,198.32 269.39,214.14 C269.76,218.36 278.58,235 276.88,235 C276.17,235 279.13,243.39 278.63,245.25 C277.3,250.2 276.54,255.87 278.75,255.33 C281.44,254.68 277.04,267.54 277.02,270.14 C277.01,271.09 283.31,281 281.68,282.81M281.68,282.81 C278.75,286.04 320.44,270.13 334.5,276.52 C342,279.93 374,295.43 374,297.33 C374,298.89 386,318.17 386,320.65 C386,323.33 384.42,361.97 381.25,362.03 C378.64,362.08 371.52,372 370.93,372 C367.71,372 350.21,383 349.18,383 C348.66,383 324.84,381.57 321.82,382.33 C318.57,383.15 284.3,358.53 281,356 C279.35,354.74 265.26,321.87 264.63,321.1M276.26,234.4 C276.9,233.77 275.64,235.02 276.26,234.4M276.26,234.4 L276.26,234.4 Z" style="fill:#B24D28;" />
					</g>
				</g>
			</g>
			<g transform="matrix(1, 0, 0, 1, -46.40464782714844, 27.70590591430664)">
				<g transform="matrix(0.10310990363359451, 0, 0, 0.10310990363359451, -13.087054252624512, -24.173505783081055)">
					<path d="M46,392 C45.37,390.94 75.69,348.33 76.53,346.8 C77.32,345.37 118.57,296.96 119.69,295.18 C120.72,293.68 141.9,268.03 143.1,267.27 C143.1,266.51 140.2,223.78 139.67,222.9 C139.04,221.85 138.54,204.83 137.98,204.49 C137.42,204.14 136.41,169.88 135.91,167.9 C133.91,159.97 128.81,130.46 131.33,126.62 C133.38,123.49 128.03,108.59 128.01,102.69 C128.01,100.3 124.23,81.3 124.57,79.47 C125.26,75.8 130.87,56.45 130.98,68.25 C130.99,69.21 140.15,80.25 139.21,81.19 C135.8,84.6 140.08,84.74 143.79,83.77 C148.83,82.45 156.54,102 157.59,102 C158.46,102 188.94,117.01 189.49,117.03 C192.5,117.13 217.05,139.65 204.21,152.78 C199.38,157.73 191.59,155.2 189.23,153 C186.87,150.8 157.41,127.09 154.06,131.43 C148.27,132.68 150.63,166 153.59,166 C154.4,166 151.94,178.5 152.05,178.5 C152.42,178.5 154.06,199.04 155.75,200.82 C157.25,202.4 153.7,206.5 154.19,209.64 C154.68,212.78 153.87,226.27 154.8,227.2 C155.46,227.86 157.16,242.46 158.44,245.51 C161.01,251.66 161.17,254.97 158.75,255.03 C158.06,255.05 161.98,262.33 161.25,263.25 C159.9,264.95 163.18,281.4 161.85,282.38 C160.09,283.69 165.27,290.31 164.37,290.81 C163.26,291.43 165,302.1 165,303.44 C165,304.78 169.23,321.33 169.43,326.09 C169.47,326.96 175.25,352.82 175.26,356.33 C175.27,358.44 178.74,370.36 177.16,371.96 C175.97,373.17 181.99,377.88 183.04,378.53 C183.57,378.85 181.98,392.31 183.51,394.65 C184.4,396.01 173.19,402.56 171.58,399.58 C169.77,396.23 157.86,399.55 152.19,399.71 C149.8,399.78 148.02,398.25 147.29,396.25 C146.31,393.57 134.52,404.75 133.5,404.36 C130.08,403.05 129.4,399.72 130.64,396.5 C131,395.56 125,401.4 125,400.91 C125,400.41 115.97,398.84 114.92,398.54 C113.51,398.14 111.39,399.94 110.72,400.61 C110.39,400.94 95.17,401.11 94.7,402.33 C80.29,403.66 55.7,399.23 51.98,397.43 C50.66,395.69 46.52,394.79 46,392 L46,392 Z" style="fill:#0077B6;" />
				</g>
			</g>
			<g transform="matrix(1.1399463415145874, 0, 0, 1.1399463415145874, -137.67604064941406, 28.55344009399414)">
				<g transform="matrix(2.5004119873046875, 0, 0, 2.9171488285064697, -426.36553955078125, -439.2052307128906)">
					<path transform="matrix(0.05167573690414429, 0, 0, 0.04275927320122719, 160.9862823486328, 144.03909301757812)" d="M188.15,287.53 C184.76,282.56 180.15,257.63 170.29,258.28 C165.89,258.57 146.73,255.42 140.89,256.83 C138.1,257.51 118.93,256.09 111.37,255.39 C107.11,255 98.02,251 96.6,251 C94.96,251 93.28,248 92.39,248 C91.69,248 92,244.95 92,243.66 C92,243.01 97,236.62 97,236.04 C97,235.47 99.98,234.6 100.17,234.11 C100.52,233.18 125.96,212.94 125.97,212.25 C125.99,211.56 131.59,208.92 134.4,206.39 C140.01,201.31 155.95,186.54 160.21,181.96 C162.02,180.01 172.81,172.28 174.42,170.64 C177.27,167.74 183,170.46 183,169.91 C183,169.36 186.74,169.09 188.26,168.69 C191.83,167.74 198.3,166.9 198.59,160.09 C198.77,156.01 200.39,147.7 200.54,145.5 C200.85,141.1 202.38,117.33 202.29,115 C201.71,99.96 201.09,92.76 201.67,92.19 C205.13,88.72 205.96,31 203.75,31 C203.2,31 204.86,28 204.17,28 C202.45,28 205.42,9.11 209.71,14.55 C211.71,17.09 222.97,22.4 245.5,33.02 C266.44,42.89 276.93,49.8 276.97,53.75 C277.02,57.62 251.03,47 249.58,47 C245.93,47 233.59,39 231.35,39 C229.51,39 227.13,37 226.06,37 C224.99,37 222.21,35 221.38,35 C220.56,35 220.16,36.59 219.14,36.33 C217.41,35.87 218.93,48.9 218.66,50.6 C218.35,52.59 224.6,58.65 237.16,70.46 C252.43,84.82 260.95,92 262.73,92 C264.34,92 264.82,103.14 261.57,101.45 C258.51,99.87 255.36,98.48 254.32,97 C252.77,94.79 246.17,90.74 244.92,89.42 C244.09,88.53 238.62,87.11 235.13,85.9 C229.56,83.95 228,95.73 228,96.73 C228,97.23 240.98,109.4 241.17,110.5 C241.38,111.77 257.87,124 256.06,124 C255.75,124 263,131.44 263,133.84 C263,137.65 257.1,132.14 256.12,132.43 C254.45,132.93 248.03,125.83 246.85,125.45 C244.55,124.72 236.39,115.74 234.43,114.97 C232.47,114.2 220.15,104.34 221.4,107.6 C221.74,108.49 217.86,109.79 217.43,110.75 C216.12,113.7 217.9,117.42 217,118 C216.18,118.53 216.7,119.66 216.04,120.46 C214.73,122.03 218.1,124.21 216.46,125.41 C215.61,126.03 212.89,139 212.04,139 C211.6,139 210.78,158 209.76,158 C209.26,158 209.17,168.43 208.18,168.23 C207.45,168.07 207.65,172.38 207.06,175.26 C205.99,180.47 203.29,198.19 202.09,199.88 C200.82,201.66 201.99,210.12 201.99,214.29 C202,216.37 204.95,224.22 203.52,230 C203.32,230.83 202.69,232.33 202.5,233.34 C202,235.96 198.98,234.17 198.11,235.8 C197.08,237.71 199.88,238.99 200.53,240.04 C200.85,240.57 199.43,241.91 199.72,243.02 C200.16,244.72 203.27,242.77 202.69,244.33 C201.83,246.62 212.19,256.42 211.64,259.87 C210.96,264.1 212.4,266.28 208.5,266.12 C204.05,265.94 202.6,268.86 201.07,268.04 C198.94,266.9 197.35,274.78 199.44,276.23 C200.06,276.66 196.97,277.26 198,278.5 C198.99,279.69 197.06,287.09 197.41,288.48 C198.5,292.86 191.27,292.12 188.15,287.53 L188.15,287.53 ZM193.23,265.93 C192.92,263.33 191.06,269.15 192.42,268.67 C193.02,268.45 193.38,267.22 193.23,265.93 L193.23,265.93 ZM231.26,80.34 C230.32,79.96 231.98,75.79 230.58,76.33 C229.57,76.72 218.22,70.87 218.03,75.25 C217.98,76.36 224,73.76 224,75.28 C224,77.97 231.94,80.62 231.26,80.34 L231.26,80.34 Z" style="fill:#0077B6;" />
				</g>
			</g>
			<g transform="matrix(1, 0, 0, 1, -91.34527587890625, 27.464824676513672)">
				<g transform="matrix(49.33620834350586, 0, 0, 49.33620834350586, -8445.447265625, -9788.8251953125)">
					<path transform="matrix(0.001818347373045981, 0, 0, 0.001818347373045981, 170.90402221679688, 197.9866485595703)" d="M88.33,425.2 C85.36,425.03 57.27,428.05 58.21,428.2 C56.86,428.2 51.55,418.81 50.5,417.91 C47.31,415.18 58.32,393.49 72.18,379.2 C99.13,351.42 122,327.35 122,326.38 C122,325.62 146.05,296.32 146.37,295.48 C146.69,294.65 159.82,281.82 161.44,279.22 C166.48,271.14 169,229.96 169,228.09 C169,198.3 161.38,112.77 160.47,109.88 C158.84,104.65 158.05,97.59 159.5,93.19 C161.33,87.66 160.34,60.35 157.87,55.78 C156.51,53.27 157.1,33.79 163.73,39 C165.13,40.1 181,49.62 181,50.09 C181,50.56 188.05,53.75 187,54.2 C185.44,54.87 210.16,66.45 210.5,67 C211.18,68.1 227.86,74.19 236.78,82.79 C242.87,88.66 253,99.28 253,101 C253,104.17 251.14,113.47 248.02,114.29 C245.16,115.03 223.31,107.99 221.25,107.97 C217.46,107.94 206.71,101 205.44,101 C200.34,101 189.46,100.48 189.27,103 C188.94,107.4 189.09,116 187.89,116 C186.55,116 190.74,121.82 192.71,123.8 C194.68,125.78 202.47,132.15 208.5,135.27 C210.15,136.12 232.39,144.96 233.17,146.13 C239.1,155.06 258.32,186.23 254.87,185.47 C251.15,184.65 231.67,180.07 230.9,179.3 C230.15,178.55 219.43,174.88 217.4,173.5 C213.35,170.75 206.12,168.71 197.66,168.71 C178.76,168.71 189.09,188.49 190.84,190.24 C191.99,191.39 191.76,210.08 189.92,219.8 C189.25,223.34 198.5,283.68 198.65,287.82 C198.76,290.73 203.98,303.95 203.6,305.44 C203.27,306.78 211.54,349.59 210.04,351.97 C209.45,352.9 213.04,361.3 211.58,362.91 C209.73,364.95 218.12,384.73 217.56,387.24 C216.39,392.42 219.55,409.03 220.93,408.85 C221.61,408.76 196.12,417.62 196.59,419.5 C197,421.15 135.53,419.14 134.42,420.07 C132.87,421.35 113.2,426.64 88.33,425.2 L88.33,425.2 ZM157,302.32 C157,301.55 157,303.98 157,302.32M157,302.32 L157,302.32 Z" style="fill:#0077B6;" />
				</g>
			</g>
			<g transform="matrix(-1, 0, 0, 1, -1.9178466796875, 25.67159652709961)">
				<g transform="matrix(1, 0, 0, 1, -0.0024461746215820312, 0.0018978118896484375)">
					<g transform="matrix(0.12278126180171967, 0, 0, 0.12278126180171967, -18.49245262145996, -23.907176971435547)">
						<path d="M122.68,336.92 C119.11,336.06 114.07,321.57 111.96,312.5 C111.32,309.75 107.2,288.52 105,282.26 C102.8,276 96.28,257.51 94.85,256.08 C90.94,252.18 92.91,219.07 90.4,211.5 C89.13,207.65 80.51,169 79.91,169 C79.21,169 74.72,140.38 74.38,139 C71.91,129.14 69.58,115.97 69.06,115.45 C68.48,114.86 67.58,100 67.07,100 C65.45,100 58.57,51.24 60.19,53.32 C61.72,55.29 74.99,51.07 75,52.2 C75.03,56.93 81.85,74.92 84.58,75.61 C87,76.22 84.21,88.39 86.11,91.11 C87.12,92.55 93.28,116.92 94.16,118.66 C95.04,120.4 97.68,130.32 98.5,131 C99.44,131.78 100,143.47 100.02,145.58 C100.03,147.07 105.28,160.11 104.05,160.92 C102.77,161.75 106,170.45 106,171 C106,172.1 104.97,191.49 105.43,192.67 C106.07,194.34 111.16,210.3 111.93,212.32 C112.62,214.14 111.65,224.34 112.89,223.57 C113.38,223.26 126.08,231.24 128,231.97 C131.85,233.44 148.99,241 150.94,241 C152.56,241 165.43,248.19 168.61,247.68 C174.97,246.64 182.07,252.7 182.37,256 C182.46,257.08 196.79,259.51 200.52,262.57 C204.26,265.64 222.3,270.04 223.29,271.09 C225.3,273.23 242.11,279.56 241.25,280.42 C240.93,280.74 238.49,292.71 235.35,294.33 C233.61,295.22 215.86,309.19 214.64,307.53 C213.6,306.1 208.6,312.92 207.5,312 C205.65,310.46 192.97,319 191.85,319 C189.53,319 173.35,322 171.23,324.67 C170,326.21 150.46,331.9 148.4,333.06 C146.46,334.15 135.65,334.94 135.18,335.68 C134.17,337.27 127.05,337.98 122.68,336.92 L122.68,336.92 Z" style="fill:#0077B6;" />
					</g>
				</g>
			</g>
			<g transform="matrix(1, 0, 0, 1, 89.63088989257812, 26.076679229736328)">
				<g transform="matrix(1, 0, 0, 1, -0.0024461746215820312, 0.0018978118896484375)">
					<g transform="matrix(0.12278126180171967, 0, 0, 0.12278126180171967, -18.49245262145996, -23.907176971435547)">
						<path d="M122.68,336.92 C119.11,336.06 114.07,321.57 111.96,312.5 C111.32,309.75 107.2,288.52 105,282.26 C102.8,276 96.28,257.51 94.85,256.08 C90.94,252.18 92.91,219.07 90.4,211.5 C89.13,207.65 80.51,169 79.91,169 C79.21,169 74.72,140.38 74.38,139 C71.91,129.14 69.58,115.97 69.06,115.45 C68.48,114.86 67.58,100 67.07,100 C65.45,100 58.57,51.24 60.19,53.32 C61.72,55.29 74.99,51.07 75,52.2 C75.03,56.93 81.85,74.92 84.58,75.61 C87,76.22 84.21,88.39 86.11,91.11 C87.12,92.55 93.28,116.92 94.16,118.66 C95.04,120.4 97.68,130.32 98.5,131 C99.44,131.78 100,143.47 100.02,145.58 C100.03,147.07 105.28,160.11 104.05,160.92 C102.77,161.75 106,170.45 106,171 C106,172.1 104.97,191.49 105.43,192.67 C106.07,194.34 111.16,210.3 111.93,212.32 C112.62,214.14 111.65,224.34 112.89,223.57 C113.38,223.26 126.08,231.24 128,231.97 C131.85,233.44 148.99,241 150.94,241 C152.56,241 165.43,248.19 168.61,247.68 C174.97,246.64 182.07,252.7 182.37,256 C182.46,257.08 196.79,259.51 200.52,262.57 C204.26,265.64 222.3,270.04 223.29,271.09 C225.3,273.23 242.11,279.56 241.25,280.42 C240.93,280.74 238.49,292.71 235.35,294.33 C233.61,295.22 215.86,309.19 214.64,307.53 C213.6,306.1 208.6,312.92 207.5,312 C205.65,310.46 192.97,319 191.85,319 C189.53,319 173.35,322 171.23,324.67 C170,326.21 150.46,331.9 148.4,333.06 C146.46,334.15 135.65,334.94 135.18,335.68 C134.17,337.27 127.05,337.98 122.68,336.92 L122.68,336.92 Z" style="fill:#0077B6;" />
					</g>
				</g>
			</g>
			<path transform="matrix(1.0728503465652466, 0, 0, 1.0728503465652466, -153.94349670410156, -33.055572509765625)" d="M173.36,66.79 L194.86,66.62 L183.93,49.34 L173.36,66.79 Z" fill-rule="evenodd" style="fill:#0077B6;" />
			<g transform="matrix(1, 0, 0, 1, 68.63604736328125, -52.10804748535156)">
				<g transform="matrix(0.11852840334177017, 0, 0, 0.11852840334177017, -21.837440490722656, -19.399173736572266)">
					<path transform="matrix(1, 0, 0, 1, 593.1981201171875, 654.2611694335938)" d="M175,348.5 C176.71,346.44 163.57,337.06 163.01,336.02 C160.52,331.36 159.21,329.12 159.12,325.7 C158.84,315.8 155.68,306.49 152.5,301.63 C150.83,299.09 153.77,282.38 151.76,280.19 C150.19,278.48 150.29,262.26 148.75,261.75 C147.89,261.46 143.51,241 142.71,240.73 C141.79,240.42 141.65,217.44 140.19,217.75 C139.13,217.97 140.73,209.16 141.39,207.42 C142.26,205.15 133,191.37 133,190.62 C133,189.87 127.72,169.71 130.5,170.24 C131.88,170.51 130.09,165.98 127.25,166.21 C123.32,166.51 117.29,147.08 116.4,149.39 C116.06,150.27 105.66,152.97 104.16,154.99 C102.41,157.36 88,165.43 88,165.9 C88,166.38 67.63,169.31 69.75,168.08 C71.31,167.17 54.5,169.84 55.75,169.34 C58.21,168.34 45,157.83 45,156.61 C45,155.72 43.58,143.19 44.65,139.17 C45.12,137.41 60.26,134.4 60.96,133.55 C61.67,132.69 93,120.12 93,119.63 C93,119.14 101.62,104.3 101.01,103.17 C96.16,94.31 91.56,64 100.27,58.61 C101.64,57.76 110.17,55.26 111.17,54.35 C112.88,52.8 123,60.75 125.23,59.35 C126.63,58.47 137.36,87.92 135.5,88.64 C134.68,88.95 142.11,100.31 143.19,102.38 C144.37,104.62 142.02,108 143.65,108 C144.82,108 139.95,120.36 140.7,120.83 C141.29,121.2 141.11,132.58 144,133.5 C146.24,134.21 144.18,138.81 142.25,139.31 C141.29,139.56 147.62,155.11 146.33,155.85 C144.67,156.79 150.91,159.8 151.93,160.17 C152.95,160.53 148.17,176.05 150.43,174.78 C153,173.34 144.32,186.65 145.34,187.67 C145.72,188.05 156,191.26 156,192.65 C156,194.05 161.78,214.99 161.4,216.25 C161,217.57 174,222.44 174,222.97 C174,223.5 186.12,228.82 185.8,230.74 C185.57,232.07 197.47,234.8 197.27,236.7 C197.07,238.65 215.22,240.32 212.75,242.92 C211.73,243.99 234.23,247.69 233.48,250.05 C233,251.57 255,255.73 255,255.24 C255,254.75 265,257.67 265,258.88 C265,260.02 277.24,266.08 275.56,267.94 C273.34,270.39 286.3,283.15 283,282.29 C280.76,281.7 278.08,295.94 282.39,297.6 C283.67,298.09 278.22,302.28 273.13,305.91 C271.41,307.13 257.94,307.39 258.39,308.58 C259.73,312.06 267.68,310.31 268.98,309.51 C269.59,309.14 276.43,311.78 274.5,312.7 C272.58,313.62 265.93,320 264.89,320 C262.81,320 251.7,324.34 249.94,322.17 C248.97,320.98 242.77,318.37 244.16,319.76 C245.03,320.63 246.06,327.71 246.4,328.6 C247.23,330.77 233.5,336.05 230.82,334.39 C230.32,334.08 221.18,339.99 221.09,338 C220.96,335.34 211.3,336.73 213.5,337.56 C215.7,338.39 206.9,340 208,340 C210.34,340 200,343.45 200,344 C200,344.55 189.18,343.82 187.1,345.9 C184.79,348.21 172.88,351.06 175,348.5 L175,348.5 ZM233.19,329.15 C234.63,327.12 234.25,326.09 231.75,326.49 C227.79,327.12 231.67,331.31 233.19,329.15 L233.19,329.15 ZM263.37,317.89 C264.18,316.72 256.96,316.85 259.23,315.01 C260.52,313.97 253.81,316.02 256.15,317.98 C259.22,320.53 261.54,320.5 263.37,317.89 L263.37,317.89 ZM79.41,157.47 C81.7,155.96 78.46,158.09 79.41,157.47M79.41,157.47 L79.41,157.47 ZM146.3,147.66 C146.77,146.44 146.11,148.15 146.3,147.66M146.3,147.66 L146.3,147.66 ZM137.62,115.23 C139.21,114.18 135,114.62 135,115.11 C135,116.18 136.1,116.24 137.62,115.23 L137.62,115.23 Z" style="fill:#0077B6;" />
				</g>
			</g>
		</g>
	</g>
</svg>